<svg xmlns="http://www.w3.org/2000/svg" viewBox="0 0 1400 900" font-family="Inter, Segoe UI, Arial, sans-serif">
<defs>
<marker id="arrow-flow" markerWidth="9" markerHeight="9" refX="7" refY="3" orient="auto"><path d="M0,0 L7,3 L0,6 Z" fill="#22c55e"/></marker>
<marker id="arrow-blue" markerWidth="9" markerHeight="9" refX="7" refY="3" orient="auto"><path d="M0,0 L7,3 L0,6 Z" fill="#3b82f6"/></marker>
<marker id="arrow-green" markerWidth="9" markerHeight="9" refX="7" refY="3" orient="auto"><path d="M0,0 L7,3 L0,6 Z" fill="#84cc16"/></marker>
<marker id="arrow-purple" markerWidth="9" markerHeight="9" refX="7" refY="3" orient="auto"><path d="M0,0 L7,3 L0,6 Z" fill="#a855f7"/></marker>
<marker id="arrow-amber" markerWidth="9" markerHeight="9" refX="7" refY="3" orient="auto"><path d="M0,0 L7,3 L0,6 Z" fill="#f59e0b"/></marker>
<marker id="arrow-teal" markerWidth="9" markerHeight="9" refX="7" refY="3" orient="auto"><path d="M0,0 L7,3 L0,6 Z" fill="#14b8a6"/></marker>
<marker id="arrow-pink" markerWidth="9" markerHeight="9" refX="7" refY="3" orient="auto"><path d="M0,0 L7,3 L0,6 Z" fill="#ec4899"/></marker>
<marker id="arrow-red" markerWidth="9" markerHeight="9" refX="7" refY="3" orient="auto"><path d="M0,0 L7,3 L0,6 Z" fill="#f43f5e"/></marker>
<filter id="soft-shadow" x="-20%" y="-20%" width="140%" height="140%"><feDropShadow dx="0" dy="10" stdDeviation="12" flood-color="#020617" flood-opacity="0.28"/></filter>
</defs>
<rect x="0" y="0" width="1400" height="900" rx="0" fill="#0a0f1c"/>
<text x="700" y="42" fill="#eef3fb" font-size="30" font-weight="800" text-anchor="middle">ClaimIQ - Copilot Architecture</text>
<rect x="22" y="70" width="1356" height="112" rx="14" fill="#0e1a2e" stroke="#294a7a" stroke-width="1.6"/>
<rect x="34" y="104" width="44" height="44" rx="11" fill="none" stroke="#7db3f0" stroke-width="2"/>
<text x="56" y="134" fill="#7db3f0" font-size="24" font-weight="800" text-anchor="middle">1</text>
<text x="92" y="118" fill="#7db3f0" font-size="17" font-weight="800" text-anchor="start">Inputs</text>
<rect x="22" y="200" width="1356" height="148" rx="14" fill="#101d13" stroke="#3f6b2a" stroke-width="1.6"/>
<rect x="34" y="252" width="44" height="44" rx="11" fill="none" stroke="#a3e635" stroke-width="2"/>
<text x="56" y="282" fill="#a3e635" font-size="24" font-weight="800" text-anchor="middle">2</text>
<text x="92" y="266" fill="#a3e635" font-size="17" font-weight="800" text-anchor="start">Core</text>
<text x="92" y="287" fill="#a3e635" font-size="17" font-weight="800" text-anchor="start">Processing</text>
<rect x="22" y="368" width="1356" height="148" rx="14" fill="#17112b" stroke="#5b3a86" stroke-width="1.6"/>
<rect x="34" y="420" width="44" height="44" rx="11" fill="none" stroke="#c4a0f5" stroke-width="2"/>
<text x="56" y="450" fill="#c4a0f5" font-size="24" font-weight="800" text-anchor="middle">3</text>
<text x="92" y="434" fill="#c4a0f5" font-size="17" font-weight="800" text-anchor="start">Decision &amp;</text>
<text x="92" y="455" fill="#c4a0f5" font-size="17" font-weight="800" text-anchor="start">Fallbacks</text>
<rect x="22" y="536" width="1356" height="124" rx="14" fill="#0b1f1c" stroke="#1a6b62" stroke-width="1.6"/>
<rect x="34" y="576" width="44" height="44" rx="11" fill="none" stroke="#2dd4bf" stroke-width="2"/>
<text x="56" y="606" fill="#2dd4bf" font-size="24" font-weight="800" text-anchor="middle">4</text>
<text x="92" y="590" fill="#2dd4bf" font-size="17" font-weight="800" text-anchor="start">Outputs</text>
<rect x="22" y="680" width="1356" height="112" rx="14" fill="#1d0f18" stroke="#8a2b56" stroke-width="1.6"/>
<rect x="34" y="714" width="44" height="44" rx="11" fill="none" stroke="#f472b6" stroke-width="2"/>
<text x="56" y="744" fill="#f472b6" font-size="24" font-weight="800" text-anchor="middle">5</text>
<text x="92" y="728" fill="#f472b6" font-size="17" font-weight="800" text-anchor="start">Safety &amp;</text>
<text x="92" y="749" fill="#f472b6" font-size="17" font-weight="800" text-anchor="start">Traceability</text>
<rect x="220" y="93" width="220" height="68" rx="11" fill="#0e1626" stroke="#3b82f6" stroke-width="1.4" stroke-opacity="0.55" filter="url(#soft-shadow)"/>
<rect x="233" y="107" width="40" height="40" rx="9" fill="#3b82f6" stroke="#3b82f6" stroke-width="1.1" opacity="0.16" stroke-opacity="0.55"/>
<text x="253" y="133" fill="#dbe6f5" font-size="14" font-weight="800" text-anchor="middle">01</text>
<text x="286" y="120" fill="#eef3fb" font-size="15.5" font-weight="700" text-anchor="start">Intake</text>
<text x="286" y="138" fill="#8593aa" font-size="10.8" font-weight="500" text-anchor="start">claim facts</text>
<text x="286" y="151" fill="#8593aa" font-size="10.8" font-weight="500" text-anchor="start">documents</text>
<rect x="485" y="93" width="220" height="68" rx="11" fill="#0e1626" stroke="#3b82f6" stroke-width="1.4" stroke-opacity="0.55" filter="url(#soft-shadow)"/>
<rect x="498" y="107" width="40" height="40" rx="9" fill="#3b82f6" stroke="#3b82f6" stroke-width="1.1" opacity="0.16" stroke-opacity="0.55"/>
<text x="518" y="133" fill="#dbe6f5" font-size="14" font-weight="800" text-anchor="middle">03</text>
<text x="551" y="120" fill="#eef3fb" font-size="15.5" font-weight="700" text-anchor="start">Coverage</text>
<text x="551" y="138" fill="#8593aa" font-size="10.8" font-weight="500" text-anchor="start">policy position</text>
<text x="551" y="151" fill="#8593aa" font-size="10.8" font-weight="500" text-anchor="start">citations</text>
<rect x="750" y="93" width="220" height="68" rx="11" fill="#0e1626" stroke="#3b82f6" stroke-width="1.4" stroke-opacity="0.55" filter="url(#soft-shadow)"/>
<rect x="763" y="107" width="40" height="40" rx="9" fill="#3b82f6" stroke="#3b82f6" stroke-width="1.1" opacity="0.16" stroke-opacity="0.55"/>
<text x="783" y="133" fill="#dbe6f5" font-size="14" font-weight="800" text-anchor="middle">04</text>
<text x="816" y="120" fill="#eef3fb" font-size="15.5" font-weight="700" text-anchor="start">Fraud</text>
<text x="816" y="138" fill="#8593aa" font-size="10.8" font-weight="500" text-anchor="start">signals</text>
<text x="816" y="151" fill="#8593aa" font-size="10.8" font-weight="500" text-anchor="start">risk action</text>
<rect x="1015" y="93" width="220" height="68" rx="11" fill="#0e1626" stroke="#3b82f6" stroke-width="1.4" stroke-opacity="0.55" filter="url(#soft-shadow)"/>
<rect x="1028" y="107" width="40" height="40" rx="9" fill="#3b82f6" stroke="#3b82f6" stroke-width="1.1" opacity="0.16" stroke-opacity="0.55"/>
<text x="1048" y="133" fill="#dbe6f5" font-size="14" font-weight="800" text-anchor="middle">05</text>
<text x="1081" y="120" fill="#eef3fb" font-size="15.5" font-weight="700" text-anchor="start">Triage</text>
<text x="1081" y="138" fill="#8593aa" font-size="10.8" font-weight="500" text-anchor="start">route</text>
<text x="1081" y="151" fill="#8593aa" font-size="10.8" font-weight="500" text-anchor="start">SLA + approval</text>
<rect x="220" y="238" width="250" height="78" rx="11" fill="#0e1626" stroke="#84cc16" stroke-width="1.4" stroke-opacity="0.55" filter="url(#soft-shadow)"/>
<rect x="233" y="257" width="40" height="40" rx="9" fill="#84cc16" stroke="#84cc16" stroke-width="1.1" opacity="0.16" stroke-opacity="0.55"/>
<text x="253" y="283" fill="#dbe6f5" font-size="14" font-weight="800" text-anchor="middle">AI</text>
<text x="286" y="265" fill="#eef3fb" font-size="15.5" font-weight="700" text-anchor="start">Brief Synthesis</text>
<text x="286" y="283" fill="#8593aa" font-size="10.8" font-weight="500" text-anchor="start">employee copilot</text>
<text x="286" y="296" fill="#8593aa" font-size="10.8" font-weight="500" text-anchor="start">strict JSON</text>
<text x="286" y="309" fill="#8593aa" font-size="10.8" font-weight="500" text-anchor="start">use supplied outputs</text>
<rect x="515" y="238" width="250" height="78" rx="11" fill="#0e1626" stroke="#84cc16" stroke-width="1.4" stroke-opacity="0.55" filter="url(#soft-shadow)"/>
<rect x="528" y="257" width="40" height="40" rx="9" fill="#84cc16" stroke="#84cc16" stroke-width="1.1" opacity="0.16" stroke-opacity="0.55"/>
<text x="548" y="283" fill="#dbe6f5" font-size="14" font-weight="800" text-anchor="middle">FB</text>
<text x="581" y="265" fill="#eef3fb" font-size="15.5" font-weight="700" text-anchor="start">Fallback Brief</text>
<text x="581" y="283" fill="#8593aa" font-size="10.8" font-weight="500" text-anchor="start">claim details</text>
<text x="581" y="296" fill="#8593aa" font-size="10.8" font-weight="500" text-anchor="start">coverage/fraud/routing</text>
<text x="581" y="309" fill="#8593aa" font-size="10.8" font-weight="500" text-anchor="start">open questions</text>
<rect x="810" y="238" width="250" height="78" rx="11" fill="#0e1626" stroke="#84cc16" stroke-width="1.4" stroke-opacity="0.55" filter="url(#soft-shadow)"/>
<rect x="823" y="257" width="40" height="40" rx="9" fill="#84cc16" stroke="#84cc16" stroke-width="1.1" opacity="0.16" stroke-opacity="0.55"/>
<text x="843" y="283" fill="#dbe6f5" font-size="14" font-weight="800" text-anchor="middle">EV</text>
<text x="876" y="265" fill="#eef3fb" font-size="15.5" font-weight="700" text-anchor="start">Evidence Log</text>
<text x="876" y="283" fill="#8593aa" font-size="10.8" font-weight="500" text-anchor="start">agent status</text>
<text x="876" y="296" fill="#8593aa" font-size="10.8" font-weight="500" text-anchor="start">completed_at</text>
<rect x="220" y="406" width="250" height="78" rx="11" fill="#0e1626" stroke="#a855f7" stroke-width="1.4" stroke-opacity="0.55" filter="url(#soft-shadow)"/>
<rect x="233" y="425" width="40" height="40" rx="9" fill="#a855f7" stroke="#a855f7" stroke-width="1.1" opacity="0.16" stroke-opacity="0.55"/>
<text x="253" y="451" fill="#dbe6f5" font-size="14" font-weight="800" text-anchor="middle">EN</text>
<text x="286" y="433" fill="#eef3fb" font-size="15.5" font-weight="700" text-anchor="start">Enrich Contract</text>
<text x="286" y="451" fill="#8593aa" font-size="10.8" font-weight="500" text-anchor="start">citations</text>
<text x="286" y="464" fill="#8593aa" font-size="10.8" font-weight="500" text-anchor="start">plain English</text>
<text x="286" y="477" fill="#8593aa" font-size="10.8" font-weight="500" text-anchor="start">role assistance</text>
<rect x="515" y="406" width="250" height="78" rx="11" fill="#0e1626" stroke="#a855f7" stroke-width="1.4" stroke-opacity="0.55" filter="url(#soft-shadow)"/>
<rect x="528" y="425" width="40" height="40" rx="9" fill="#a855f7" stroke="#a855f7" stroke-width="1.1" opacity="0.16" stroke-opacity="0.55"/>
<text x="548" y="451" fill="#dbe6f5" font-size="14" font-weight="800" text-anchor="middle">TL</text>
<text x="581" y="433" fill="#eef3fb" font-size="15.5" font-weight="700" text-anchor="start">Timeline + Next Steps</text>
<text x="581" y="451" fill="#8593aa" font-size="10.8" font-weight="500" text-anchor="start">claim chronology</text>
<text x="581" y="464" fill="#8593aa" font-size="10.8" font-weight="500" text-anchor="start">missing items</text>
<text x="581" y="477" fill="#8593aa" font-size="10.8" font-weight="500" text-anchor="start">review actions</text>
<rect x="810" y="406" width="250" height="78" rx="11" fill="#0e1626" stroke="#a855f7" stroke-width="1.4" stroke-opacity="0.55" filter="url(#soft-shadow)"/>
<rect x="823" y="425" width="40" height="40" rx="9" fill="#a855f7" stroke="#a855f7" stroke-width="1.1" opacity="0.16" stroke-opacity="0.55"/>
<text x="843" y="451" fill="#dbe6f5" font-size="14" font-weight="800" text-anchor="middle">LT</text>
<text x="876" y="433" fill="#eef3fb" font-size="15.5" font-weight="700" text-anchor="start">Generated Drafts</text>
<text x="876" y="451" fill="#8593aa" font-size="10.8" font-weight="500" text-anchor="start">document request</text>
<text x="876" y="464" fill="#8593aa" font-size="10.8" font-weight="500" text-anchor="start">hospital clarification</text>
<text x="876" y="477" fill="#8593aa" font-size="10.8" font-weight="500" text-anchor="start">internal note</text>
<rect x="220" y="568" width="250" height="68" rx="11" fill="#0e1626" stroke="#14b8a6" stroke-width="1.4" stroke-opacity="0.55" filter="url(#soft-shadow)"/>
<rect x="233" y="582" width="40" height="40" rx="9" fill="#14b8a6" stroke="#14b8a6" stroke-width="1.1" opacity="0.16" stroke-opacity="0.55"/>
<text x="253" y="608" fill="#dbe6f5" font-size="14" font-weight="800" text-anchor="middle">MD</text>
<text x="286" y="595" fill="#eef3fb" font-size="15.5" font-weight="700" text-anchor="start">Adjuster Markdown</text>
<text x="286" y="613" fill="#8593aa" font-size="10.8" font-weight="500" text-anchor="start">human boundary</text>
<text x="286" y="626" fill="#8593aa" font-size="10.8" font-weight="500" text-anchor="start">claim snapshot</text>
<rect x="515" y="568" width="250" height="68" rx="11" fill="#0e1626" stroke="#14b8a6" stroke-width="1.4" stroke-opacity="0.55" filter="url(#soft-shadow)"/>
<rect x="528" y="582" width="40" height="40" rx="9" fill="#14b8a6" stroke="#14b8a6" stroke-width="1.1" opacity="0.16" stroke-opacity="0.55"/>
<text x="548" y="608" fill="#dbe6f5" font-size="14" font-weight="800" text-anchor="middle">PDF</text>
<text x="581" y="595" fill="#eef3fb" font-size="15.5" font-weight="700" text-anchor="start">Report Input</text>
<text x="581" y="613" fill="#8593aa" font-size="10.8" font-weight="500" text-anchor="start">PDF sections</text>
<text x="581" y="626" fill="#8593aa" font-size="10.8" font-weight="500" text-anchor="start">evidence/citations</text>
<rect x="810" y="568" width="250" height="68" rx="11" fill="#0e1626" stroke="#14b8a6" stroke-width="1.4" stroke-opacity="0.55" filter="url(#soft-shadow)"/>
<rect x="823" y="582" width="40" height="40" rx="9" fill="#14b8a6" stroke="#14b8a6" stroke-width="1.1" opacity="0.16" stroke-opacity="0.55"/>
<text x="843" y="608" fill="#dbe6f5" font-size="14" font-weight="800" text-anchor="middle">TO</text>
<text x="876" y="595" fill="#eef3fb" font-size="15.5" font-weight="700" text-anchor="start">Recommended Tools</text>
<text x="876" y="613" fill="#8593aa" font-size="10.8" font-weight="500" text-anchor="start">RAG, calculator</text>
<text x="876" y="626" fill="#8593aa" font-size="10.8" font-weight="500" text-anchor="start">letters, timeline</text>
<rect x="220" y="706" width="250" height="60" rx="11" fill="#0e1626" stroke="#ec4899" stroke-width="1.4" stroke-opacity="0.55" filter="url(#soft-shadow)"/>
<rect x="233" y="718" width="40" height="40" rx="9" fill="#ec4899" stroke="#ec4899" stroke-width="1.1" opacity="0.16" stroke-opacity="0.55"/>
<text x="253" y="744" fill="#dbe6f5" font-size="14" font-weight="800" text-anchor="middle">BD</text>
<text x="286" y="733" fill="#eef3fb" font-size="15.5" font-weight="700" text-anchor="start">Decision Boundary</text>
<text x="286" y="751" fill="#8593aa" font-size="10.8" font-weight="500" text-anchor="start">does not approve</text>
<text x="286" y="764" fill="#8593aa" font-size="10.8" font-weight="500" text-anchor="start">does not deny/settle</text>
<rect x="515" y="706" width="250" height="60" rx="11" fill="#0e1626" stroke="#ec4899" stroke-width="1.4" stroke-opacity="0.55" filter="url(#soft-shadow)"/>
<rect x="528" y="718" width="40" height="40" rx="9" fill="#ec4899" stroke="#ec4899" stroke-width="1.1" opacity="0.16" stroke-opacity="0.55"/>
<text x="548" y="744" fill="#dbe6f5" font-size="14" font-weight="800" text-anchor="middle">RL</text>
<text x="581" y="733" fill="#eef3fb" font-size="15.5" font-weight="700" text-anchor="start">Role Views</text>
<text x="581" y="751" fill="#8593aa" font-size="10.8" font-weight="500" text-anchor="start">claims, SIU</text>
<text x="581" y="764" fill="#8593aa" font-size="10.8" font-weight="500" text-anchor="start">medical, audit</text>
<rect x="810" y="706" width="250" height="60" rx="11" fill="#0e1626" stroke="#ec4899" stroke-width="1.4" stroke-opacity="0.55" filter="url(#soft-shadow)"/>
<rect x="823" y="718" width="40" height="40" rx="9" fill="#ec4899" stroke="#ec4899" stroke-width="1.1" opacity="0.16" stroke-opacity="0.55"/>
<text x="843" y="744" fill="#dbe6f5" font-size="14" font-weight="800" text-anchor="middle">AU</text>
<text x="876" y="733" fill="#eef3fb" font-size="15.5" font-weight="700" text-anchor="start">Audit</text>
<text x="876" y="751" fill="#8593aa" font-size="10.8" font-weight="500" text-anchor="start">agent_completed</text>
<text x="876" y="764" fill="#8593aa" font-size="10.8" font-weight="500" text-anchor="start">triage_color</text>
<path d="M 440 127 L 485 127" fill="none" stroke="#22c55e" stroke-width="2" opacity="1" marker-end="url(#arrow-flow)"/>
<path d="M 705 127 L 750 127" fill="none" stroke="#22c55e" stroke-width="2" opacity="1" marker-end="url(#arrow-flow)"/>
<path d="M 970 127 L 1015 127" fill="none" stroke="#22c55e" stroke-width="2" opacity="1" marker-end="url(#arrow-flow)"/>
<path d="M 595 161 L 595 190 L 345 190 L 345 238" fill="none" stroke="#3b82f6" stroke-width="2" stroke-dasharray="6 5" opacity="1" marker-end="url(#arrow-blue)"/>
<path d="M 470 277 L 515 277" fill="none" stroke="#3b82f6" stroke-width="2" stroke-dasharray="6 5" opacity="1" marker-end="url(#arrow-blue)"/>
<text x="515" y="269" fill="#3b82f6" font-size="10.5" font-weight="700" text-anchor="middle">on error</text>
<path d="M 765 277 L 810 277" fill="none" stroke="#22c55e" stroke-width="2" opacity="1" marker-end="url(#arrow-flow)"/>
<path d="M 345 316 L 345 406" fill="none" stroke="#22c55e" stroke-width="2" opacity="1" marker-end="url(#arrow-flow)"/>
<path d="M 935 316 L 935 365 L 345 365 L 345 406" fill="none" stroke="#22c55e" stroke-width="2" opacity="1" marker-end="url(#arrow-flow)"/>
<path d="M 470 445 L 515 445" fill="none" stroke="#22c55e" stroke-width="2" opacity="1" marker-end="url(#arrow-flow)"/>
<path d="M 765 445 L 810 445" fill="none" stroke="#22c55e" stroke-width="2" opacity="1" marker-end="url(#arrow-flow)"/>
<path d="M 935 484 L 935 525 L 345 525 L 345 568" fill="none" stroke="#14b8a6" stroke-width="2" opacity="1" marker-end="url(#arrow-teal)"/>
<path d="M 470 602 L 515 602" fill="none" stroke="#14b8a6" stroke-width="2" opacity="1" marker-end="url(#arrow-teal)"/>
<path d="M 765 602 L 810 602" fill="none" stroke="#14b8a6" stroke-width="2" opacity="1" marker-end="url(#arrow-teal)"/>
<path d="M 345 484 L 345 666 L 640 666 L 640 706" fill="none" stroke="#ec4899" stroke-width="2" stroke-dasharray="6 5" opacity="1" marker-end="url(#arrow-pink)"/>
<path d="M 345 636 L 345 706" fill="none" stroke="#ec4899" stroke-width="2" stroke-dasharray="6 5" opacity="1" marker-end="url(#arrow-pink)"/>
<path d="M 935 636 L 935 706" fill="none" stroke="#ec4899" stroke-width="2" stroke-dasharray="6 5" opacity="1" marker-end="url(#arrow-pink)"/>
<rect x="22" y="822" width="1356" height="58" rx="12" fill="#0c1322" stroke="#20293c" stroke-width="1"/>
<path d="M 110 852 h 34" stroke="#22c55e" stroke-width="2.4" marker-end="url(#arrow-flow)"/>
<text x="156" y="856" fill="#c7d2e2" font-size="12.5" font-weight="600" text-anchor="start">Primary data</text>
<path d="M 342 852 h 34" stroke="#3b82f6" stroke-width="2.4" stroke-dasharray="6 5" marker-end="url(#arrow-blue)"/>
<text x="388" y="856" fill="#c7d2e2" font-size="12.5" font-weight="600" text-anchor="start">Model call</text>
<path d="M 574 852 h 34" stroke="#f59e0b" stroke-width="2.4" stroke-dasharray="6 5" marker-end="url(#arrow-amber)"/>
<text x="620" y="856" fill="#c7d2e2" font-size="12.5" font-weight="600" text-anchor="start">Evidence / storage</text>
<path d="M 806 852 h 34" stroke="#14b8a6" stroke-width="2.4" stroke-dasharray="6 5" marker-end="url(#arrow-teal)"/>
<text x="852" y="856" fill="#c7d2e2" font-size="12.5" font-weight="600" text-anchor="start">Output</text>
<path d="M 1038 852 h 34" stroke="#ec4899" stroke-width="2.4" stroke-dasharray="6 5" marker-end="url(#arrow-pink)"/>
<text x="1084" y="856" fill="#c7d2e2" font-size="12.5" font-weight="600" text-anchor="start">Guardrail</text>
</svg>
