<svg xmlns="http://www.w3.org/2000/svg" viewBox="0 0 1400 900" font-family="Inter, Segoe UI, Arial, sans-serif">
<defs>
<marker id="arrow-flow" markerWidth="9" markerHeight="9" refX="7" refY="3" orient="auto"><path d="M0,0 L7,3 L0,6 Z" fill="#22c55e"/></marker>
<marker id="arrow-blue" markerWidth="9" markerHeight="9" refX="7" refY="3" orient="auto"><path d="M0,0 L7,3 L0,6 Z" fill="#3b82f6"/></marker>
<marker id="arrow-green" markerWidth="9" markerHeight="9" refX="7" refY="3" orient="auto"><path d="M0,0 L7,3 L0,6 Z" fill="#84cc16"/></marker>
<marker id="arrow-purple" markerWidth="9" markerHeight="9" refX="7" refY="3" orient="auto"><path d="M0,0 L7,3 L0,6 Z" fill="#a855f7"/></marker>
<marker id="arrow-amber" markerWidth="9" markerHeight="9" refX="7" refY="3" orient="auto"><path d="M0,0 L7,3 L0,6 Z" fill="#f59e0b"/></marker>
<marker id="arrow-teal" markerWidth="9" markerHeight="9" refX="7" refY="3" orient="auto"><path d="M0,0 L7,3 L0,6 Z" fill="#14b8a6"/></marker>
<marker id="arrow-pink" markerWidth="9" markerHeight="9" refX="7" refY="3" orient="auto"><path d="M0,0 L7,3 L0,6 Z" fill="#ec4899"/></marker>
<marker id="arrow-red" markerWidth="9" markerHeight="9" refX="7" refY="3" orient="auto"><path d="M0,0 L7,3 L0,6 Z" fill="#f43f5e"/></marker>
<filter id="soft-shadow" x="-20%" y="-20%" width="140%" height="140%"><feDropShadow dx="0" dy="10" stdDeviation="12" flood-color="#020617" flood-opacity="0.28"/></filter>
</defs>
<rect x="0" y="0" width="1400" height="900" rx="0" fill="#0a0f1c"/>
<text x="700" y="42" fill="#eef3fb" font-size="30" font-weight="800" text-anchor="middle">ClaimIQ - Intake Architecture</text>
<rect x="22" y="70" width="1356" height="112" rx="14" fill="#0e1a2e" stroke="#294a7a" stroke-width="1.6"/>
<rect x="34" y="104" width="44" height="44" rx="11" fill="none" stroke="#7db3f0" stroke-width="2"/>
<text x="56" y="134" fill="#7db3f0" font-size="24" font-weight="800" text-anchor="middle">1</text>
<text x="92" y="118" fill="#7db3f0" font-size="17" font-weight="800" text-anchor="start">Inputs</text>
<rect x="22" y="200" width="1356" height="148" rx="14" fill="#101d13" stroke="#3f6b2a" stroke-width="1.6"/>
<rect x="34" y="252" width="44" height="44" rx="11" fill="none" stroke="#a3e635" stroke-width="2"/>
<text x="56" y="282" fill="#a3e635" font-size="24" font-weight="800" text-anchor="middle">2</text>
<text x="92" y="266" fill="#a3e635" font-size="17" font-weight="800" text-anchor="start">Core</text>
<text x="92" y="287" fill="#a3e635" font-size="17" font-weight="800" text-anchor="start">Processing</text>
<rect x="22" y="368" width="1356" height="148" rx="14" fill="#17112b" stroke="#5b3a86" stroke-width="1.6"/>
<rect x="34" y="420" width="44" height="44" rx="11" fill="none" stroke="#c4a0f5" stroke-width="2"/>
<text x="56" y="450" fill="#c4a0f5" font-size="24" font-weight="800" text-anchor="middle">3</text>
<text x="92" y="434" fill="#c4a0f5" font-size="17" font-weight="800" text-anchor="start">Decision &amp;</text>
<text x="92" y="455" fill="#c4a0f5" font-size="17" font-weight="800" text-anchor="start">Fallbacks</text>
<rect x="22" y="536" width="1356" height="124" rx="14" fill="#0b1f1c" stroke="#1a6b62" stroke-width="1.6"/>
<rect x="34" y="576" width="44" height="44" rx="11" fill="none" stroke="#2dd4bf" stroke-width="2"/>
<text x="56" y="606" fill="#2dd4bf" font-size="24" font-weight="800" text-anchor="middle">4</text>
<text x="92" y="590" fill="#2dd4bf" font-size="17" font-weight="800" text-anchor="start">Outputs</text>
<rect x="22" y="680" width="1356" height="112" rx="14" fill="#1d0f18" stroke="#8a2b56" stroke-width="1.6"/>
<rect x="34" y="714" width="44" height="44" rx="11" fill="none" stroke="#f472b6" stroke-width="2"/>
<text x="56" y="744" fill="#f472b6" font-size="24" font-weight="800" text-anchor="middle">5</text>
<text x="92" y="728" fill="#f472b6" font-size="17" font-weight="800" text-anchor="start">Safety &amp;</text>
<text x="92" y="749" fill="#f472b6" font-size="17" font-weight="800" text-anchor="start">Traceability</text>
<rect x="220" y="93" width="230" height="68" rx="11" fill="#0e1626" stroke="#3b82f6" stroke-width="1.4" stroke-opacity="0.55" filter="url(#soft-shadow)"/>
<rect x="233" y="107" width="40" height="40" rx="9" fill="#3b82f6" stroke="#3b82f6" stroke-width="1.1" opacity="0.16" stroke-opacity="0.55"/>
<text x="253" y="133" fill="#dbe6f5" font-size="14" font-weight="800" text-anchor="middle">EM</text>
<text x="286" y="120" fill="#eef3fb" font-size="15.5" font-weight="700" text-anchor="start">Claim Email</text>
<text x="286" y="138" fill="#8593aa" font-size="10.8" font-weight="500" text-anchor="start">free-form text</text>
<text x="286" y="151" fill="#8593aa" font-size="10.8" font-weight="500" text-anchor="start">6000 char prompt cap</text>
<rect x="500" y="93" width="230" height="68" rx="11" fill="#0e1626" stroke="#3b82f6" stroke-width="1.4" stroke-opacity="0.55" filter="url(#soft-shadow)"/>
<rect x="513" y="107" width="40" height="40" rx="9" fill="#3b82f6" stroke="#3b82f6" stroke-width="1.1" opacity="0.16" stroke-opacity="0.55"/>
<text x="533" y="133" fill="#dbe6f5" font-size="14" font-weight="800" text-anchor="middle">UP</text>
<text x="566" y="120" fill="#eef3fb" font-size="15.5" font-weight="700" text-anchor="start">Uploaded Docs</text>
<text x="566" y="138" fill="#8593aa" font-size="10.8" font-weight="500" text-anchor="start">bytes + mime</text>
<text x="566" y="151" fill="#8593aa" font-size="10.8" font-weight="500" text-anchor="start">images, PDF, text</text>
<rect x="780" y="93" width="230" height="68" rx="11" fill="#0e1626" stroke="#3b82f6" stroke-width="1.4" stroke-opacity="0.55" filter="url(#soft-shadow)"/>
<rect x="793" y="107" width="40" height="40" rx="9" fill="#3b82f6" stroke="#3b82f6" stroke-width="1.1" opacity="0.16" stroke-opacity="0.55"/>
<text x="813" y="133" fill="#dbe6f5" font-size="14" font-weight="800" text-anchor="middle">DS</text>
<text x="846" y="120" fill="#eef3fb" font-size="15.5" font-weight="700" text-anchor="start">Existing Summary</text>
<text x="846" y="138" fill="#8593aa" font-size="10.8" font-weight="500" text-anchor="start">attachments.py output</text>
<text x="846" y="151" fill="#8593aa" font-size="10.8" font-weight="500" text-anchor="start">optional context</text>
<rect x="1060" y="93" width="230" height="68" rx="11" fill="#0e1626" stroke="#3b82f6" stroke-width="1.4" stroke-opacity="0.55" filter="url(#soft-shadow)"/>
<rect x="1073" y="107" width="40" height="40" rx="9" fill="#3b82f6" stroke="#3b82f6" stroke-width="1.1" opacity="0.16" stroke-opacity="0.55"/>
<text x="1093" y="133" fill="#dbe6f5" font-size="14" font-weight="800" text-anchor="middle">JS</text>
<text x="1126" y="120" fill="#eef3fb" font-size="15.5" font-weight="700" text-anchor="start">Strict Schema</text>
<text x="1126" y="138" fill="#8593aa" font-size="10.8" font-weight="500" text-anchor="start">30+ fields</text>
<text x="1126" y="151" fill="#8593aa" font-size="10.8" font-weight="500" text-anchor="start">no extra keys</text>
<rect x="220" y="238" width="240" height="78" rx="11" fill="#0e1626" stroke="#84cc16" stroke-width="1.4" stroke-opacity="0.55" filter="url(#soft-shadow)"/>
<rect x="233" y="257" width="40" height="40" rx="9" fill="#84cc16" stroke="#84cc16" stroke-width="1.1" opacity="0.16" stroke-opacity="0.55"/>
<text x="253" y="283" fill="#dbe6f5" font-size="14" font-weight="800" text-anchor="middle">M</text>
<text x="286" y="265" fill="#eef3fb" font-size="15.5" font-weight="700" text-anchor="start">Modality Split</text>
<text x="286" y="283" fill="#8593aa" font-size="10.8" font-weight="500" text-anchor="start">image -&gt; vision</text>
<text x="286" y="296" fill="#8593aa" font-size="10.8" font-weight="500" text-anchor="start">PDF/text -&gt; text</text>
<text x="286" y="309" fill="#8593aa" font-size="10.8" font-weight="500" text-anchor="start">scanned PDF render</text>
<rect x="500" y="238" width="240" height="78" rx="11" fill="#0e1626" stroke="#84cc16" stroke-width="1.4" stroke-opacity="0.55" filter="url(#soft-shadow)"/>
<rect x="513" y="257" width="40" height="40" rx="9" fill="#84cc16" stroke="#84cc16" stroke-width="1.1" opacity="0.16" stroke-opacity="0.55"/>
<text x="533" y="283" fill="#dbe6f5" font-size="14" font-weight="800" text-anchor="middle">PD</text>
<text x="566" y="265" fill="#eef3fb" font-size="15.5" font-weight="700" text-anchor="start">Per-Document JSON</text>
<text x="566" y="283" fill="#8593aa" font-size="10.8" font-weight="500" text-anchor="start">document_type</text>
<text x="566" y="296" fill="#8593aa" font-size="10.8" font-weight="500" text-anchor="start">fields, quality</text>
<text x="566" y="309" fill="#8593aa" font-size="10.8" font-weight="500" text-anchor="start">risk signals</text>
<rect x="780" y="238" width="240" height="78" rx="11" fill="#0e1626" stroke="#84cc16" stroke-width="1.4" stroke-opacity="0.55" filter="url(#soft-shadow)"/>
<rect x="793" y="257" width="40" height="40" rx="9" fill="#84cc16" stroke="#84cc16" stroke-width="1.1" opacity="0.16" stroke-opacity="0.55"/>
<text x="813" y="283" fill="#dbe6f5" font-size="14" font-weight="800" text-anchor="middle">MG</text>
<text x="846" y="265" fill="#eef3fb" font-size="15.5" font-weight="700" text-anchor="start">Merge Summaries</text>
<text x="846" y="283" fill="#8593aa" font-size="10.8" font-weight="500" text-anchor="start">dedupe filenames</text>
<text x="846" y="296" fill="#8593aa" font-size="10.8" font-weight="500" text-anchor="start">preserve risk</text>
<text x="846" y="309" fill="#8593aa" font-size="10.8" font-weight="500" text-anchor="start">modalities</text>
<rect x="1060" y="238" width="240" height="78" rx="11" fill="#0e1626" stroke="#84cc16" stroke-width="1.4" stroke-opacity="0.55" filter="url(#soft-shadow)"/>
<rect x="1073" y="257" width="40" height="40" rx="9" fill="#84cc16" stroke="#84cc16" stroke-width="1.1" opacity="0.16" stroke-opacity="0.55"/>
<text x="1093" y="283" fill="#dbe6f5" font-size="14" font-weight="800" text-anchor="middle">AI</text>
<text x="1126" y="265" fill="#eef3fb" font-size="15.5" font-weight="700" text-anchor="start">Reasoning Extract</text>
<text x="1126" y="283" fill="#8593aa" font-size="10.8" font-weight="500" text-anchor="start">claim facts</text>
<text x="1126" y="296" fill="#8593aa" font-size="10.8" font-weight="500" text-anchor="start">conflicts</text>
<text x="1126" y="309" fill="#8593aa" font-size="10.8" font-weight="500" text-anchor="start">next agent hint</text>
<rect x="220" y="406" width="240" height="78" rx="11" fill="#0e1626" stroke="#a855f7" stroke-width="1.4" stroke-opacity="0.55" filter="url(#soft-shadow)"/>
<rect x="233" y="425" width="40" height="40" rx="9" fill="#a855f7" stroke="#a855f7" stroke-width="1.1" opacity="0.16" stroke-opacity="0.55"/>
<text x="253" y="451" fill="#dbe6f5" font-size="14" font-weight="800" text-anchor="middle">FB</text>
<text x="286" y="433" fill="#eef3fb" font-size="15.5" font-weight="700" text-anchor="start">Deterministic Extract</text>
<text x="286" y="451" fill="#8593aa" font-size="10.8" font-weight="500" text-anchor="start">policy/date/amount</text>
<text x="286" y="464" fill="#8593aa" font-size="10.8" font-weight="500" text-anchor="start">document aliases</text>
<text x="286" y="477" fill="#8593aa" font-size="10.8" font-weight="500" text-anchor="start">claim type</text>
<rect x="500" y="406" width="240" height="78" rx="11" fill="#0e1626" stroke="#a855f7" stroke-width="1.4" stroke-opacity="0.55" filter="url(#soft-shadow)"/>
<rect x="513" y="425" width="40" height="40" rx="9" fill="#a855f7" stroke="#a855f7" stroke-width="1.1" opacity="0.16" stroke-opacity="0.55"/>
<text x="533" y="451" fill="#dbe6f5" font-size="14" font-weight="800" text-anchor="middle">EN</text>
<text x="566" y="433" fill="#eef3fb" font-size="15.5" font-weight="700" text-anchor="start">Enrich Contract</text>
<text x="566" y="451" fill="#8593aa" font-size="10.8" font-weight="500" text-anchor="start">backfill fields</text>
<text x="566" y="464" fill="#8593aa" font-size="10.8" font-weight="500" text-anchor="start">missing info logic</text>
<text x="566" y="477" fill="#8593aa" font-size="10.8" font-weight="500" text-anchor="start">risk merge</text>
<rect x="780" y="406" width="240" height="78" rx="11" fill="#0e1626" stroke="#a855f7" stroke-width="1.4" stroke-opacity="0.55" filter="url(#soft-shadow)"/>
<rect x="793" y="425" width="40" height="40" rx="9" fill="#a855f7" stroke="#a855f7" stroke-width="1.1" opacity="0.16" stroke-opacity="0.55"/>
<text x="813" y="451" fill="#dbe6f5" font-size="14" font-weight="800" text-anchor="middle">RC</text>
<text x="846" y="433" fill="#eef3fb" font-size="15.5" font-weight="700" text-anchor="start">Reconcile Result</text>
<text x="846" y="451" fill="#8593aa" font-size="10.8" font-weight="500" text-anchor="start">amount promotion</text>
<text x="846" y="464" fill="#8593aa" font-size="10.8" font-weight="500" text-anchor="start">document evidence</text>
<text x="846" y="477" fill="#8593aa" font-size="10.8" font-weight="500" text-anchor="start">status correction</text>
<rect x="1060" y="406" width="240" height="78" rx="11" fill="#0e1626" stroke="#a855f7" stroke-width="1.4" stroke-opacity="0.55" filter="url(#soft-shadow)"/>
<rect x="1073" y="425" width="40" height="40" rx="9" fill="#a855f7" stroke="#a855f7" stroke-width="1.1" opacity="0.16" stroke-opacity="0.55"/>
<text x="1093" y="451" fill="#dbe6f5" font-size="14" font-weight="800" text-anchor="middle">ST</text>
<text x="1126" y="433" fill="#eef3fb" font-size="15.5" font-weight="700" text-anchor="start">Status Gate</text>
<text x="1126" y="451" fill="#8593aa" font-size="10.8" font-weight="500" text-anchor="start">complete</text>
<text x="1126" y="464" fill="#8593aa" font-size="10.8" font-weight="500" text-anchor="start">needs_review</text>
<text x="1126" y="477" fill="#8593aa" font-size="10.8" font-weight="500" text-anchor="start">incomplete</text>
<rect x="220" y="568" width="240" height="68" rx="11" fill="#0e1626" stroke="#14b8a6" stroke-width="1.4" stroke-opacity="0.55" filter="url(#soft-shadow)"/>
<rect x="233" y="582" width="40" height="40" rx="9" fill="#14b8a6" stroke="#14b8a6" stroke-width="1.1" opacity="0.16" stroke-opacity="0.55"/>
<text x="253" y="608" fill="#dbe6f5" font-size="14" font-weight="800" text-anchor="middle">OUT</text>
<text x="286" y="595" fill="#eef3fb" font-size="15.5" font-weight="700" text-anchor="start">Structured Claim</text>
<text x="286" y="613" fill="#8593aa" font-size="10.8" font-weight="500" text-anchor="start">claimant, policy</text>
<text x="286" y="626" fill="#8593aa" font-size="10.8" font-weight="500" text-anchor="start">date, amount, type</text>
<rect x="500" y="568" width="240" height="68" rx="11" fill="#0e1626" stroke="#14b8a6" stroke-width="1.4" stroke-opacity="0.55" filter="url(#soft-shadow)"/>
<rect x="513" y="582" width="40" height="40" rx="9" fill="#14b8a6" stroke="#14b8a6" stroke-width="1.1" opacity="0.16" stroke-opacity="0.55"/>
<text x="533" y="608" fill="#dbe6f5" font-size="14" font-weight="800" text-anchor="middle">DOC</text>
<text x="566" y="595" fill="#eef3fb" font-size="15.5" font-weight="700" text-anchor="start">Documents Summary</text>
<text x="566" y="613" fill="#8593aa" font-size="10.8" font-weight="500" text-anchor="start">per_document</text>
<text x="566" y="626" fill="#8593aa" font-size="10.8" font-weight="500" text-anchor="start">quality + signals</text>
<rect x="780" y="568" width="240" height="68" rx="11" fill="#0e1626" stroke="#14b8a6" stroke-width="1.4" stroke-opacity="0.55" filter="url(#soft-shadow)"/>
<rect x="793" y="582" width="40" height="40" rx="9" fill="#14b8a6" stroke="#14b8a6" stroke-width="1.1" opacity="0.16" stroke-opacity="0.55"/>
<text x="813" y="608" fill="#dbe6f5" font-size="14" font-weight="800" text-anchor="middle">R</text>
<text x="846" y="595" fill="#eef3fb" font-size="15.5" font-weight="700" text-anchor="start">Router Input</text>
<text x="846" y="613" fill="#8593aa" font-size="10.8" font-weight="500" text-anchor="start">intake_status</text>
<text x="846" y="626" fill="#8593aa" font-size="10.8" font-weight="500" text-anchor="start">missing docs</text>
<rect x="1060" y="568" width="240" height="68" rx="11" fill="#0e1626" stroke="#14b8a6" stroke-width="1.4" stroke-opacity="0.55" filter="url(#soft-shadow)"/>
<rect x="1073" y="582" width="40" height="40" rx="9" fill="#14b8a6" stroke="#14b8a6" stroke-width="1.1" opacity="0.16" stroke-opacity="0.55"/>
<text x="1093" y="608" fill="#dbe6f5" font-size="14" font-weight="800" text-anchor="middle">SIU</text>
<text x="1126" y="595" fill="#eef3fb" font-size="15.5" font-weight="700" text-anchor="start">Fraud Evidence</text>
<text x="1126" y="613" fill="#8593aa" font-size="10.8" font-weight="500" text-anchor="start">risk_indicators</text>
<text x="1126" y="626" fill="#8593aa" font-size="10.8" font-weight="500" text-anchor="start">document signals</text>
<rect x="220" y="706" width="240" height="60" rx="11" fill="#0e1626" stroke="#ec4899" stroke-width="1.4" stroke-opacity="0.55" filter="url(#soft-shadow)"/>
<rect x="233" y="718" width="40" height="40" rx="9" fill="#ec4899" stroke="#ec4899" stroke-width="1.1" opacity="0.16" stroke-opacity="0.55"/>
<text x="253" y="744" fill="#dbe6f5" font-size="14" font-weight="800" text-anchor="middle">BD</text>
<text x="286" y="733" fill="#eef3fb" font-size="15.5" font-weight="700" text-anchor="start">Boundary</text>
<text x="286" y="751" fill="#8593aa" font-size="10.8" font-weight="500" text-anchor="start">extract facts only</text>
<text x="286" y="764" fill="#8593aa" font-size="10.8" font-weight="500" text-anchor="start">no adjudication</text>
<rect x="500" y="706" width="240" height="60" rx="11" fill="#0e1626" stroke="#ec4899" stroke-width="1.4" stroke-opacity="0.55" filter="url(#soft-shadow)"/>
<rect x="513" y="718" width="40" height="40" rx="9" fill="#ec4899" stroke="#ec4899" stroke-width="1.1" opacity="0.16" stroke-opacity="0.55"/>
<text x="533" y="744" fill="#dbe6f5" font-size="14" font-weight="800" text-anchor="middle">Q</text>
<text x="566" y="733" fill="#eef3fb" font-size="15.5" font-weight="700" text-anchor="start">Quality Gate</text>
<text x="566" y="751" fill="#8593aa" font-size="10.8" font-weight="500" text-anchor="start">missing docs</text>
<text x="566" y="764" fill="#8593aa" font-size="10.8" font-weight="500" text-anchor="start">low confidence</text>
<rect x="780" y="706" width="240" height="60" rx="11" fill="#0e1626" stroke="#ec4899" stroke-width="1.4" stroke-opacity="0.55" filter="url(#soft-shadow)"/>
<rect x="793" y="718" width="40" height="40" rx="9" fill="#ec4899" stroke="#ec4899" stroke-width="1.1" opacity="0.16" stroke-opacity="0.55"/>
<text x="813" y="744" fill="#dbe6f5" font-size="14" font-weight="800" text-anchor="middle">AU</text>
<text x="846" y="733" fill="#eef3fb" font-size="15.5" font-weight="700" text-anchor="start">Audit Output</text>
<text x="846" y="751" fill="#8593aa" font-size="10.8" font-weight="500" text-anchor="start">agent_started</text>
<text x="846" y="764" fill="#8593aa" font-size="10.8" font-weight="500" text-anchor="start">agent_completed</text>
<path d="M 615 161 L 615 190 L 340 190 L 340 238" fill="none" stroke="#22c55e" stroke-width="2" opacity="1" marker-end="url(#arrow-flow)"/>
<path d="M 460 277 L 500 277" fill="none" stroke="#3b82f6" stroke-width="2" stroke-dasharray="6 5" opacity="1" marker-end="url(#arrow-blue)"/>
<path d="M 740 277 L 780 277" fill="none" stroke="#22c55e" stroke-width="2" opacity="1" marker-end="url(#arrow-flow)"/>
<path d="M 895 161 L 900 238" fill="none" stroke="#22c55e" stroke-width="2" opacity="1" marker-end="url(#arrow-flow)"/>
<path d="M 335 161 L 335 190 L 1180 190 L 1180 238" fill="none" stroke="#22c55e" stroke-width="2" opacity="1" marker-end="url(#arrow-flow)"/>
<path d="M 1020 277 L 1060 277" fill="none" stroke="#3b82f6" stroke-width="2" stroke-dasharray="6 5" opacity="1" marker-end="url(#arrow-blue)"/>
<path d="M 1180 316 L 1180 365 L 620 365 L 620 406" fill="none" stroke="#22c55e" stroke-width="2" opacity="1" marker-end="url(#arrow-flow)"/>
<path d="M 1180 316 L 1180 365 L 340 365 L 340 406" fill="none" stroke="#3b82f6" stroke-width="2" stroke-dasharray="6 5" opacity="1" marker-end="url(#arrow-blue)"/>
<text x="340" y="357" fill="#3b82f6" font-size="10.5" font-weight="700" text-anchor="middle">on error</text>
<path d="M 460 445 L 500 445" fill="none" stroke="#22c55e" stroke-width="2" opacity="1" marker-end="url(#arrow-flow)"/>
<path d="M 740 445 L 780 445" fill="none" stroke="#22c55e" stroke-width="2" opacity="1" marker-end="url(#arrow-flow)"/>
<path d="M 1020 445 L 1060 445" fill="none" stroke="#22c55e" stroke-width="2" opacity="1" marker-end="url(#arrow-flow)"/>
<path d="M 1180 484 L 1180 525 L 340 525 L 340 568" fill="none" stroke="#14b8a6" stroke-width="2" opacity="1" marker-end="url(#arrow-teal)"/>
<path d="M 1180 484 L 1180 525 L 620 525 L 620 568" fill="none" stroke="#14b8a6" stroke-width="2" opacity="1" marker-end="url(#arrow-teal)"/>
<path d="M 1180 484 L 1180 525 L 900 525 L 900 568" fill="none" stroke="#14b8a6" stroke-width="2" opacity="1" marker-end="url(#arrow-teal)"/>
<path d="M 740 602 L 1060 602" fill="none" stroke="#14b8a6" stroke-width="2" opacity="1" marker-end="url(#arrow-teal)"/>
<path d="M 1180 484 L 1180 666 L 620 666 L 620 706" fill="none" stroke="#ec4899" stroke-width="2" stroke-dasharray="6 5" opacity="1" marker-end="url(#arrow-pink)"/>
<path d="M 340 636 L 340 666 L 900 666 L 900 706" fill="none" stroke="#ec4899" stroke-width="2" stroke-dasharray="6 5" opacity="1" marker-end="url(#arrow-pink)"/>
<rect x="22" y="822" width="1356" height="58" rx="12" fill="#0c1322" stroke="#20293c" stroke-width="1"/>
<path d="M 110 852 h 34" stroke="#22c55e" stroke-width="2.4" marker-end="url(#arrow-flow)"/>
<text x="156" y="856" fill="#c7d2e2" font-size="12.5" font-weight="600" text-anchor="start">Primary data</text>
<path d="M 342 852 h 34" stroke="#3b82f6" stroke-width="2.4" stroke-dasharray="6 5" marker-end="url(#arrow-blue)"/>
<text x="388" y="856" fill="#c7d2e2" font-size="12.5" font-weight="600" text-anchor="start">Model call</text>
<path d="M 574 852 h 34" stroke="#f59e0b" stroke-width="2.4" stroke-dasharray="6 5" marker-end="url(#arrow-amber)"/>
<text x="620" y="856" fill="#c7d2e2" font-size="12.5" font-weight="600" text-anchor="start">Evidence / storage</text>
<path d="M 806 852 h 34" stroke="#14b8a6" stroke-width="2.4" stroke-dasharray="6 5" marker-end="url(#arrow-teal)"/>
<text x="852" y="856" fill="#c7d2e2" font-size="12.5" font-weight="600" text-anchor="start">Output</text>
<path d="M 1038 852 h 34" stroke="#ec4899" stroke-width="2.4" stroke-dasharray="6 5" marker-end="url(#arrow-pink)"/>
<text x="1084" y="856" fill="#c7d2e2" font-size="12.5" font-weight="600" text-anchor="start">Guardrail</text>
</svg>
