<svg xmlns="http://www.w3.org/2000/svg" viewBox="0 0 1536 1024" font-family="Inter, Segoe UI, Arial, sans-serif">
<defs>
<marker id="arrow-flow" markerWidth="9" markerHeight="9" refX="7" refY="3" orient="auto"><path d="M0,0 L7,3 L0,6 Z" fill="#22c55e"/></marker>
<marker id="arrow-blue" markerWidth="9" markerHeight="9" refX="7" refY="3" orient="auto"><path d="M0,0 L7,3 L0,6 Z" fill="#3b82f6"/></marker>
<marker id="arrow-green" markerWidth="9" markerHeight="9" refX="7" refY="3" orient="auto"><path d="M0,0 L7,3 L0,6 Z" fill="#84cc16"/></marker>
<marker id="arrow-purple" markerWidth="9" markerHeight="9" refX="7" refY="3" orient="auto"><path d="M0,0 L7,3 L0,6 Z" fill="#a855f7"/></marker>
<marker id="arrow-amber" markerWidth="9" markerHeight="9" refX="7" refY="3" orient="auto"><path d="M0,0 L7,3 L0,6 Z" fill="#f59e0b"/></marker>
<marker id="arrow-teal" markerWidth="9" markerHeight="9" refX="7" refY="3" orient="auto"><path d="M0,0 L7,3 L0,6 Z" fill="#14b8a6"/></marker>
<marker id="arrow-pink" markerWidth="9" markerHeight="9" refX="7" refY="3" orient="auto"><path d="M0,0 L7,3 L0,6 Z" fill="#ec4899"/></marker>
<marker id="arrow-red" markerWidth="9" markerHeight="9" refX="7" refY="3" orient="auto"><path d="M0,0 L7,3 L0,6 Z" fill="#f43f5e"/></marker>
<filter id="soft-shadow" x="-20%" y="-20%" width="140%" height="140%"><feDropShadow dx="0" dy="10" stdDeviation="12" flood-color="#020617" flood-opacity="0.28"/></filter>
</defs>
<rect x="0" y="0" width="1536" height="1024" rx="0" fill="#0a0f1c"/>
<text x="768" y="42" fill="#eef3fb" font-size="30" font-weight="800" text-anchor="middle">ClaimIQ - Prototype Architecture - Agentic Claims Pipeline</text>
<rect x="22" y="60" width="1492" height="104" rx="14" fill="#0e1a2e" stroke="#294a7a" stroke-width="1.6"/>
<rect x="34" y="90" width="44" height="44" rx="11" fill="none" stroke="#7db3f0" stroke-width="2"/>
<text x="56" y="120" fill="#7db3f0" font-size="24" font-weight="800" text-anchor="middle">1</text>
<text x="92" y="104" fill="#7db3f0" font-size="17" font-weight="800" text-anchor="start">Sources &amp;</text>
<text x="92" y="125" fill="#7db3f0" font-size="17" font-weight="800" text-anchor="start">Channels</text>
<rect x="22" y="170" width="1492" height="104" rx="14" fill="#0e1a2e" stroke="#294a7a" stroke-width="1.6"/>
<rect x="34" y="200" width="44" height="44" rx="11" fill="none" stroke="#7db3f0" stroke-width="2"/>
<text x="56" y="230" fill="#7db3f0" font-size="24" font-weight="800" text-anchor="middle">2</text>
<text x="92" y="214" fill="#7db3f0" font-size="17" font-weight="800" text-anchor="start">Ingestion &amp;</text>
<text x="92" y="235" fill="#7db3f0" font-size="17" font-weight="800" text-anchor="start">Guardrails</text>
<rect x="22" y="282" width="1492" height="200" rx="14" fill="#101d13" stroke="#3f6b2a" stroke-width="1.6"/>
<rect x="34" y="360" width="44" height="44" rx="11" fill="none" stroke="#a3e635" stroke-width="2"/>
<text x="56" y="390" fill="#a3e635" font-size="24" font-weight="800" text-anchor="middle">3</text>
<text x="92" y="374" fill="#a3e635" font-size="17" font-weight="800" text-anchor="start">Agent</text>
<text x="92" y="395" fill="#a3e635" font-size="17" font-weight="800" text-anchor="start">Orchestration</text>
<rect x="22" y="490" width="1492" height="100" rx="14" fill="#17112b" stroke="#5b3a86" stroke-width="1.6"/>
<rect x="34" y="518" width="44" height="44" rx="11" fill="none" stroke="#c4a0f5" stroke-width="2"/>
<text x="56" y="548" fill="#c4a0f5" font-size="24" font-weight="800" text-anchor="middle">4</text>
<text x="92" y="532" fill="#c4a0f5" font-size="17" font-weight="800" text-anchor="start">OpenAI</text>
<text x="92" y="553" fill="#c4a0f5" font-size="17" font-weight="800" text-anchor="start">Intelligence</text>
<rect x="22" y="600" width="1492" height="100" rx="14" fill="#1d1608" stroke="#8a5a12" stroke-width="1.6"/>
<rect x="34" y="628" width="44" height="44" rx="11" fill="none" stroke="#fbbf24" stroke-width="2"/>
<text x="56" y="658" fill="#fbbf24" font-size="24" font-weight="800" text-anchor="middle">5</text>
<text x="92" y="642" fill="#fbbf24" font-size="17" font-weight="800" text-anchor="start">Evidence &amp;</text>
<text x="92" y="663" fill="#fbbf24" font-size="17" font-weight="800" text-anchor="start">Data Plane</text>
<rect x="22" y="710" width="1492" height="100" rx="14" fill="#0b1f1c" stroke="#1a6b62" stroke-width="1.6"/>
<rect x="34" y="738" width="44" height="44" rx="11" fill="none" stroke="#2dd4bf" stroke-width="2"/>
<text x="56" y="768" fill="#2dd4bf" font-size="24" font-weight="800" text-anchor="middle">6</text>
<text x="92" y="752" fill="#2dd4bf" font-size="17" font-weight="800" text-anchor="start">Outputs &amp;</text>
<text x="92" y="773" fill="#2dd4bf" font-size="17" font-weight="800" text-anchor="start">Human Loop</text>
<rect x="22" y="820" width="1492" height="100" rx="14" fill="#1d0f18" stroke="#8a2b56" stroke-width="1.6"/>
<rect x="34" y="848" width="44" height="44" rx="11" fill="none" stroke="#f472b6" stroke-width="2"/>
<text x="56" y="878" fill="#f472b6" font-size="24" font-weight="800" text-anchor="middle">7</text>
<text x="92" y="862" fill="#f472b6" font-size="17" font-weight="800" text-anchor="start">Safety &amp;</text>
<text x="92" y="883" fill="#f472b6" font-size="17" font-weight="800" text-anchor="start">Observability</text>
<rect x="218" y="80" width="235" height="68" rx="11" fill="#0e1626" stroke="#3b82f6" stroke-width="1.4" stroke-opacity="0.55" filter="url(#soft-shadow)"/>
<rect x="231" y="94" width="40" height="40" rx="9" fill="#3b82f6" stroke="#3b82f6" stroke-width="1.1" opacity="0.16" stroke-opacity="0.55"/>
<text x="251" y="120" fill="#dbe6f5" font-size="14" font-weight="800" text-anchor="middle">C</text>
<text x="284" y="107" fill="#eef3fb" font-size="15.5" font-weight="700" text-anchor="start">Claimant</text>
<text x="284" y="125" fill="#8593aa" font-size="10.8" font-weight="500" text-anchor="start">claim email</text>
<text x="284" y="138" fill="#8593aa" font-size="10.8" font-weight="500" text-anchor="start">documents + photos</text>
<rect x="520" y="80" width="235" height="68" rx="11" fill="#0e1626" stroke="#3b82f6" stroke-width="1.4" stroke-opacity="0.55" filter="url(#soft-shadow)"/>
<rect x="533" y="94" width="40" height="40" rx="9" fill="#3b82f6" stroke="#3b82f6" stroke-width="1.1" opacity="0.16" stroke-opacity="0.55"/>
<text x="553" y="120" fill="#dbe6f5" font-size="14" font-weight="800" text-anchor="middle">GM</text>
<text x="586" y="107" fill="#eef3fb" font-size="15.5" font-weight="700" text-anchor="start">Gmail Mailbox</text>
<text x="586" y="125" fill="#8593aa" font-size="10.8" font-weight="500" text-anchor="start">IMAP unread poll</text>
<text x="586" y="138" fill="#8593aa" font-size="10.8" font-weight="500" text-anchor="start">threaded replies</text>
<rect x="822" y="80" width="250" height="68" rx="11" fill="#0e1626" stroke="#3b82f6" stroke-width="1.4" stroke-opacity="0.55" filter="url(#soft-shadow)"/>
<rect x="835" y="94" width="40" height="40" rx="9" fill="#3b82f6" stroke="#3b82f6" stroke-width="1.1" opacity="0.16" stroke-opacity="0.55"/>
<text x="855" y="120" fill="#dbe6f5" font-size="14" font-weight="800" text-anchor="middle">UI</text>
<text x="888" y="107" fill="#eef3fb" font-size="15.5" font-weight="700" text-anchor="start">Streamlit Console</text>
<text x="888" y="125" fill="#8593aa" font-size="10.8" font-weight="500" text-anchor="start">live logs</text>
<text x="888" y="138" fill="#8593aa" font-size="10.8" font-weight="500" text-anchor="start">traceability JSON</text>
<rect x="1138" y="80" width="250" height="68" rx="11" fill="#0e1626" stroke="#3b82f6" stroke-width="1.4" stroke-opacity="0.55" filter="url(#soft-shadow)"/>
<rect x="1151" y="94" width="40" height="40" rx="9" fill="#3b82f6" stroke="#3b82f6" stroke-width="1.1" opacity="0.16" stroke-opacity="0.55"/>
<text x="1171" y="120" fill="#dbe6f5" font-size="14" font-weight="800" text-anchor="middle">HR</text>
<text x="1204" y="107" fill="#eef3fb" font-size="15.5" font-weight="700" text-anchor="start">Adjuster / SIU</text>
<text x="1204" y="125" fill="#8593aa" font-size="10.8" font-weight="500" text-anchor="start">human review</text>
<text x="1204" y="138" fill="#8593aa" font-size="10.8" font-weight="500" text-anchor="start">final authority</text>
<rect x="218" y="190" width="235" height="68" rx="11" fill="#0e1626" stroke="#3b82f6" stroke-width="1.4" stroke-opacity="0.55" filter="url(#soft-shadow)"/>
<rect x="231" y="204" width="40" height="40" rx="9" fill="#3b82f6" stroke="#3b82f6" stroke-width="1.1" opacity="0.16" stroke-opacity="0.55"/>
<text x="251" y="230" fill="#dbe6f5" font-size="14" font-weight="800" text-anchor="middle">PY</text>
<text x="284" y="217" fill="#eef3fb" font-size="15.5" font-weight="700" text-anchor="start">app/run.py</text>
<text x="284" y="235" fill="#8593aa" font-size="10.8" font-weight="500" text-anchor="start">watch, demo, no-bq</text>
<text x="284" y="248" fill="#8593aa" font-size="10.8" font-weight="500" text-anchor="start">claim id + dedupe</text>
<rect x="493" y="190" width="235" height="68" rx="11" fill="#0e1626" stroke="#3b82f6" stroke-width="1.4" stroke-opacity="0.55" filter="url(#soft-shadow)"/>
<rect x="506" y="204" width="40" height="40" rx="9" fill="#3b82f6" stroke="#3b82f6" stroke-width="1.1" opacity="0.16" stroke-opacity="0.55"/>
<text x="526" y="230" fill="#dbe6f5" font-size="14" font-weight="800" text-anchor="middle">EM</text>
<text x="559" y="217" fill="#eef3fb" font-size="15.5" font-weight="700" text-anchor="start">email_io.py</text>
<text x="559" y="235" fill="#8593aa" font-size="10.8" font-weight="500" text-anchor="start">IMAP read</text>
<text x="559" y="248" fill="#8593aa" font-size="10.8" font-weight="500" text-anchor="start">SMTP send</text>
<rect x="768" y="190" width="265" height="68" rx="11" fill="#0e1626" stroke="#3b82f6" stroke-width="1.4" stroke-opacity="0.55" filter="url(#soft-shadow)"/>
<rect x="781" y="204" width="40" height="40" rx="9" fill="#3b82f6" stroke="#3b82f6" stroke-width="1.1" opacity="0.16" stroke-opacity="0.55"/>
<text x="801" y="230" fill="#dbe6f5" font-size="14" font-weight="800" text-anchor="middle">AT</text>
<text x="834" y="217" fill="#eef3fb" font-size="15.5" font-weight="700" text-anchor="start">attachments.py</text>
<text x="834" y="235" fill="#8593aa" font-size="10.8" font-weight="500" text-anchor="start">extract files</text>
<text x="834" y="248" fill="#8593aa" font-size="10.8" font-weight="500" text-anchor="start">text, PDF, image, DOCX</text>
<rect x="1090" y="190" width="250" height="68" rx="11" fill="#0e1626" stroke="#3b82f6" stroke-width="1.4" stroke-opacity="0.55" filter="url(#soft-shadow)"/>
<rect x="1103" y="204" width="40" height="40" rx="9" fill="#3b82f6" stroke="#3b82f6" stroke-width="1.1" opacity="0.16" stroke-opacity="0.55"/>
<text x="1123" y="230" fill="#dbe6f5" font-size="14" font-weight="800" text-anchor="middle">IV</text>
<text x="1156" y="217" fill="#eef3fb" font-size="15.5" font-weight="700" text-anchor="start">InputValidator</text>
<text x="1156" y="235" fill="#8593aa" font-size="10.8" font-weight="500" text-anchor="start">size + format</text>
<text x="1156" y="248" fill="#8593aa" font-size="10.8" font-weight="500" text-anchor="start">prompt-injection scan</text>
<rect x="205" y="312" width="250" height="66" rx="11" fill="#0e1626" stroke="#84cc16" stroke-width="1.4" stroke-opacity="0.55" filter="url(#soft-shadow)"/>
<rect x="218" y="325" width="40" height="40" rx="9" fill="#84cc16" stroke="#84cc16" stroke-width="1.1" opacity="0.16" stroke-opacity="0.55"/>
<text x="238" y="351" fill="#dbe6f5" font-size="14" font-weight="800" text-anchor="middle">00</text>
<text x="271" y="339" fill="#eef3fb" font-size="15.5" font-weight="700" text-anchor="start">Pipeline Orchestrator</text>
<text x="271" y="357" fill="#8593aa" font-size="10.8" font-weight="500" text-anchor="start">session flow</text>
<text x="271" y="370" fill="#8593aa" font-size="10.8" font-weight="500" text-anchor="start">timed agent stages</text>
<rect x="520" y="312" width="215" height="66" rx="11" fill="#0e1626" stroke="#84cc16" stroke-width="1.4" stroke-opacity="0.55" filter="url(#soft-shadow)"/>
<rect x="533" y="325" width="40" height="40" rx="9" fill="#84cc16" stroke="#84cc16" stroke-width="1.1" opacity="0.16" stroke-opacity="0.55"/>
<text x="553" y="351" fill="#dbe6f5" font-size="14" font-weight="800" text-anchor="middle">S</text>
<text x="586" y="339" fill="#eef3fb" font-size="15.5" font-weight="700" text-anchor="start">ClaimSession</text>
<text x="586" y="357" fill="#8593aa" font-size="10.8" font-weight="500" text-anchor="start">versioned state</text>
<text x="586" y="370" fill="#8593aa" font-size="10.8" font-weight="500" text-anchor="start">guard, route, outputs</text>
<rect x="760" y="312" width="205" height="66" rx="11" fill="#0e1626" stroke="#84cc16" stroke-width="1.4" stroke-opacity="0.55" filter="url(#soft-shadow)"/>
<rect x="773" y="325" width="40" height="40" rx="9" fill="#84cc16" stroke="#84cc16" stroke-width="1.1" opacity="0.16" stroke-opacity="0.55"/>
<text x="793" y="351" fill="#dbe6f5" font-size="14" font-weight="800" text-anchor="middle">G</text>
<text x="826" y="339" fill="#eef3fb" font-size="15.5" font-weight="700" text-anchor="start">Mail Guard</text>
<text x="826" y="357" fill="#8593aa" font-size="10.8" font-weight="500" text-anchor="start">front-door gate</text>
<text x="826" y="370" fill="#8593aa" font-size="10.8" font-weight="500" text-anchor="start">rewrite request</text>
<rect x="1000" y="312" width="175" height="66" rx="11" fill="#0e1626" stroke="#84cc16" stroke-width="1.4" stroke-opacity="0.55" filter="url(#soft-shadow)"/>
<rect x="1013" y="325" width="40" height="40" rx="9" fill="#84cc16" stroke="#84cc16" stroke-width="1.1" opacity="0.16" stroke-opacity="0.55"/>
<text x="1033" y="351" fill="#dbe6f5" font-size="14" font-weight="800" text-anchor="middle">R</text>
<text x="1066" y="339" fill="#eef3fb" font-size="15.5" font-weight="700" text-anchor="start">Router</text>
<text x="1066" y="357" fill="#8593aa" font-size="10.8" font-weight="500" text-anchor="start">fast path</text>
<text x="1066" y="370" fill="#8593aa" font-size="10.8" font-weight="500" text-anchor="start">dependency order</text>
<rect x="1195" y="312" width="222" height="66" rx="11" fill="#0e1626" stroke="#84cc16" stroke-width="1.4" stroke-opacity="0.55" filter="url(#soft-shadow)"/>
<rect x="1208" y="325" width="40" height="40" rx="9" fill="#84cc16" stroke="#84cc16" stroke-width="1.1" opacity="0.16" stroke-opacity="0.55"/>
<text x="1228" y="351" fill="#dbe6f5" font-size="14" font-weight="800" text-anchor="middle">RT</text>
<text x="1261" y="339" fill="#eef3fb" font-size="15.5" font-weight="700" text-anchor="start">Shared Runtime</text>
<text x="1261" y="357" fill="#8593aa" font-size="10.8" font-weight="500" text-anchor="start">config, audit</text>
<text x="1261" y="370" fill="#8593aa" font-size="10.8" font-weight="500" text-anchor="start">openai_client</text>
<rect x="205" y="400" width="250" height="74" rx="11" fill="#0e1626" stroke="#84cc16" stroke-width="1.4" stroke-opacity="0.55" filter="url(#soft-shadow)"/>
<rect x="218" y="417" width="40" height="40" rx="9" fill="#84cc16" stroke="#84cc16" stroke-width="1.1" opacity="0.16" stroke-opacity="0.55"/>
<text x="238" y="443" fill="#dbe6f5" font-size="14" font-weight="800" text-anchor="middle">01</text>
<text x="271" y="427" fill="#eef3fb" font-size="15.5" font-weight="700" text-anchor="start">Intake</text>
<text x="271" y="445" fill="#8593aa" font-size="10.8" font-weight="500" text-anchor="start">multimodal extraction</text>
<text x="271" y="458" fill="#8593aa" font-size="10.8" font-weight="500" text-anchor="start">30+ field contract</text>
<rect x="478" y="400" width="255" height="74" rx="11" fill="#0e1626" stroke="#84cc16" stroke-width="1.4" stroke-opacity="0.55" filter="url(#soft-shadow)"/>
<rect x="491" y="417" width="40" height="40" rx="9" fill="#84cc16" stroke="#84cc16" stroke-width="1.1" opacity="0.16" stroke-opacity="0.55"/>
<text x="511" y="443" fill="#dbe6f5" font-size="14" font-weight="800" text-anchor="middle">03</text>
<text x="544" y="427" fill="#eef3fb" font-size="15.5" font-weight="700" text-anchor="start">Coverage</text>
<text x="544" y="445" fill="#8593aa" font-size="10.8" font-weight="500" text-anchor="start">policy evidence</text>
<text x="544" y="458" fill="#8593aa" font-size="10.8" font-weight="500" text-anchor="start">compliance guardrail</text>
<rect x="756" y="400" width="250" height="74" rx="11" fill="#0e1626" stroke="#84cc16" stroke-width="1.4" stroke-opacity="0.55" filter="url(#soft-shadow)"/>
<rect x="769" y="417" width="40" height="40" rx="9" fill="#84cc16" stroke="#84cc16" stroke-width="1.1" opacity="0.16" stroke-opacity="0.55"/>
<text x="789" y="443" fill="#dbe6f5" font-size="14" font-weight="800" text-anchor="middle">04</text>
<text x="822" y="427" fill="#eef3fb" font-size="15.5" font-weight="700" text-anchor="start">Fraud</text>
<text x="822" y="445" fill="#8593aa" font-size="10.8" font-weight="500" text-anchor="start">SIU signals</text>
<text x="822" y="458" fill="#8593aa" font-size="10.8" font-weight="500" text-anchor="start">deterministic score</text>
<rect x="1028" y="400" width="180" height="74" rx="11" fill="#0e1626" stroke="#84cc16" stroke-width="1.4" stroke-opacity="0.55" filter="url(#soft-shadow)"/>
<rect x="1041" y="417" width="40" height="40" rx="9" fill="#84cc16" stroke="#84cc16" stroke-width="1.1" opacity="0.16" stroke-opacity="0.55"/>
<text x="1061" y="443" fill="#dbe6f5" font-size="14" font-weight="800" text-anchor="middle">05</text>
<text x="1094" y="427" fill="#eef3fb" font-size="15.5" font-weight="700" text-anchor="start">Triage</text>
<text x="1094" y="445" fill="#8593aa" font-size="10.8" font-weight="500" text-anchor="start">SLA + routing</text>
<text x="1094" y="458" fill="#8593aa" font-size="10.8" font-weight="500" text-anchor="start">hard overrides</text>
<rect x="1230" y="400" width="187" height="74" rx="11" fill="#0e1626" stroke="#84cc16" stroke-width="1.4" stroke-opacity="0.55" filter="url(#soft-shadow)"/>
<rect x="1243" y="417" width="40" height="40" rx="9" fill="#84cc16" stroke="#84cc16" stroke-width="1.1" opacity="0.16" stroke-opacity="0.55"/>
<text x="1263" y="443" fill="#dbe6f5" font-size="14" font-weight="800" text-anchor="middle">06</text>
<text x="1296" y="427" fill="#eef3fb" font-size="15.5" font-weight="700" text-anchor="start">Copilot</text>
<text x="1296" y="445" fill="#8593aa" font-size="10.8" font-weight="500" text-anchor="start">employee brief</text>
<text x="1296" y="458" fill="#8593aa" font-size="10.8" font-weight="500" text-anchor="start">never decides</text>
<rect x="258" y="506" width="300" height="68" rx="11" fill="#0e1626" stroke="#a855f7" stroke-width="1.4" stroke-opacity="0.55" filter="url(#soft-shadow)"/>
<rect x="271" y="520" width="40" height="40" rx="9" fill="#a855f7" stroke="#a855f7" stroke-width="1.1" opacity="0.16" stroke-opacity="0.55"/>
<text x="291" y="546" fill="#dbe6f5" font-size="14" font-weight="800" text-anchor="middle">AI</text>
<text x="324" y="533" fill="#eef3fb" font-size="15.5" font-weight="700" text-anchor="start">OpenAI JSON Layer</text>
<text x="324" y="551" fill="#8593aa" font-size="10.8" font-weight="500" text-anchor="start">Responses API</text>
<text x="324" y="564" fill="#8593aa" font-size="10.8" font-weight="500" text-anchor="start">strict object outputs</text>
<rect x="600" y="506" width="225" height="68" rx="11" fill="#0e1626" stroke="#a855f7" stroke-width="1.4" stroke-opacity="0.55" filter="url(#soft-shadow)"/>
<rect x="613" y="520" width="40" height="40" rx="9" fill="#a855f7" stroke="#a855f7" stroke-width="1.1" opacity="0.16" stroke-opacity="0.55"/>
<text x="633" y="546" fill="#dbe6f5" font-size="14" font-weight="800" text-anchor="middle">V</text>
<text x="666" y="533" fill="#eef3fb" font-size="15.5" font-weight="700" text-anchor="start">Vision Models</text>
<text x="666" y="551" fill="#8593aa" font-size="10.8" font-weight="500" text-anchor="start">images</text>
<text x="666" y="564" fill="#8593aa" font-size="10.8" font-weight="500" text-anchor="start">scanned PDF page</text>
<rect x="850" y="506" width="225" height="68" rx="11" fill="#0e1626" stroke="#a855f7" stroke-width="1.4" stroke-opacity="0.55" filter="url(#soft-shadow)"/>
<rect x="863" y="520" width="40" height="40" rx="9" fill="#a855f7" stroke="#a855f7" stroke-width="1.1" opacity="0.16" stroke-opacity="0.55"/>
<text x="883" y="546" fill="#dbe6f5" font-size="14" font-weight="800" text-anchor="middle">LM</text>
<text x="916" y="533" fill="#eef3fb" font-size="15.5" font-weight="700" text-anchor="start">Reasoning Models</text>
<text x="916" y="551" fill="#8593aa" font-size="10.8" font-weight="500" text-anchor="start">agent synthesis</text>
<text x="916" y="564" fill="#8593aa" font-size="10.8" font-weight="500" text-anchor="start">router ambiguity</text>
<rect x="1100" y="506" width="225" height="68" rx="11" fill="#0e1626" stroke="#a855f7" stroke-width="1.4" stroke-opacity="0.55" filter="url(#soft-shadow)"/>
<rect x="1113" y="520" width="40" height="40" rx="9" fill="#a855f7" stroke="#a855f7" stroke-width="1.1" opacity="0.16" stroke-opacity="0.55"/>
<text x="1133" y="546" fill="#dbe6f5" font-size="14" font-weight="800" text-anchor="middle">FB</text>
<text x="1166" y="533" fill="#eef3fb" font-size="15.5" font-weight="700" text-anchor="start">Fallback Rules</text>
<text x="1166" y="551" fill="#8593aa" font-size="10.8" font-weight="500" text-anchor="start">deterministic extract</text>
<text x="1166" y="564" fill="#8593aa" font-size="10.8" font-weight="500" text-anchor="start">safe triage</text>
<rect x="258" y="616" width="268" height="68" rx="11" fill="#0e1626" stroke="#f59e0b" stroke-width="1.4" stroke-opacity="0.55" filter="url(#soft-shadow)"/>
<rect x="271" y="630" width="40" height="40" rx="9" fill="#f59e0b" stroke="#f59e0b" stroke-width="1.1" opacity="0.16" stroke-opacity="0.55"/>
<text x="291" y="656" fill="#dbe6f5" font-size="14" font-weight="800" text-anchor="middle">BQ</text>
<text x="324" y="643" fill="#eef3fb" font-size="15.5" font-weight="700" text-anchor="start">Google BigQuery</text>
<text x="324" y="661" fill="#8593aa" font-size="10.8" font-weight="500" text-anchor="start">policies</text>
<text x="324" y="674" fill="#8593aa" font-size="10.8" font-weight="500" text-anchor="start">claims + audit</text>
<rect x="575" y="616" width="232" height="68" rx="11" fill="#0e1626" stroke="#f59e0b" stroke-width="1.4" stroke-opacity="0.55" filter="url(#soft-shadow)"/>
<rect x="588" y="630" width="40" height="40" rx="9" fill="#f59e0b" stroke="#f59e0b" stroke-width="1.1" opacity="0.16" stroke-opacity="0.55"/>
<text x="608" y="656" fill="#dbe6f5" font-size="14" font-weight="800" text-anchor="middle">DR</text>
<text x="641" y="643" fill="#eef3fb" font-size="15.5" font-weight="700" text-anchor="start">Google Drive</text>
<text x="641" y="661" fill="#8593aa" font-size="10.8" font-weight="500" text-anchor="start">claim folders</text>
<text x="641" y="674" fill="#8593aa" font-size="10.8" font-weight="500" text-anchor="start">attachments + PDFs</text>
<rect x="858" y="616" width="222" height="68" rx="11" fill="#0e1626" stroke="#f59e0b" stroke-width="1.4" stroke-opacity="0.55" filter="url(#soft-shadow)"/>
<rect x="871" y="630" width="40" height="40" rx="9" fill="#f59e0b" stroke="#f59e0b" stroke-width="1.1" opacity="0.16" stroke-opacity="0.55"/>
<text x="891" y="656" fill="#dbe6f5" font-size="14" font-weight="800" text-anchor="middle">PD</text>
<text x="924" y="643" fill="#eef3fb" font-size="15.5" font-weight="700" text-anchor="start">Policy PDFs</text>
<text x="924" y="661" fill="#8593aa" font-size="10.8" font-weight="500" text-anchor="start">local docs</text>
<text x="924" y="674" fill="#8593aa" font-size="10.8" font-weight="500" text-anchor="start">catalog fallback</text>
<rect x="1128" y="616" width="238" height="68" rx="11" fill="#0e1626" stroke="#f59e0b" stroke-width="1.4" stroke-opacity="0.55" filter="url(#soft-shadow)"/>
<rect x="1141" y="630" width="40" height="40" rx="9" fill="#f59e0b" stroke="#f59e0b" stroke-width="1.1" opacity="0.16" stroke-opacity="0.55"/>
<text x="1161" y="656" fill="#dbe6f5" font-size="14" font-weight="800" text-anchor="middle">FS</text>
<text x="1194" y="643" fill="#eef3fb" font-size="15.5" font-weight="700" text-anchor="start">Local Outputs</text>
<text x="1194" y="661" fill="#8593aa" font-size="10.8" font-weight="500" text-anchor="start">email_output</text>
<text x="1194" y="674" fill="#8593aa" font-size="10.8" font-weight="500" text-anchor="start">report artifacts</text>
<rect x="258" y="726" width="268" height="68" rx="11" fill="#0e1626" stroke="#14b8a6" stroke-width="1.4" stroke-opacity="0.55" filter="url(#soft-shadow)"/>
<rect x="271" y="740" width="40" height="40" rx="9" fill="#14b8a6" stroke="#14b8a6" stroke-width="1.1" opacity="0.16" stroke-opacity="0.55"/>
<text x="291" y="766" fill="#dbe6f5" font-size="14" font-weight="800" text-anchor="middle">SM</text>
<text x="324" y="753" fill="#eef3fb" font-size="15.5" font-weight="700" text-anchor="start">SMTP Email Updates</text>
<text x="324" y="771" fill="#8593aa" font-size="10.8" font-weight="500" text-anchor="start">received</text>
<text x="324" y="784" fill="#8593aa" font-size="10.8" font-weight="500" text-anchor="start">coverage, fraud, route</text>
<rect x="575" y="726" width="232" height="68" rx="11" fill="#0e1626" stroke="#14b8a6" stroke-width="1.4" stroke-opacity="0.55" filter="url(#soft-shadow)"/>
<rect x="588" y="740" width="40" height="40" rx="9" fill="#14b8a6" stroke="#14b8a6" stroke-width="1.1" opacity="0.16" stroke-opacity="0.55"/>
<text x="608" y="766" fill="#dbe6f5" font-size="14" font-weight="800" text-anchor="middle">PDF</text>
<text x="641" y="753" fill="#eef3fb" font-size="15.5" font-weight="700" text-anchor="start">PDF Report</text>
<text x="641" y="771" fill="#8593aa" font-size="10.8" font-weight="500" text-anchor="start">ClaimIQ report</text>
<text x="641" y="784" fill="#8593aa" font-size="10.8" font-weight="500" text-anchor="start">adjuster guide</text>
<rect x="858" y="726" width="232" height="68" rx="11" fill="#0e1626" stroke="#14b8a6" stroke-width="1.4" stroke-opacity="0.55" filter="url(#soft-shadow)"/>
<rect x="871" y="740" width="40" height="40" rx="9" fill="#14b8a6" stroke="#14b8a6" stroke-width="1.1" opacity="0.16" stroke-opacity="0.55"/>
<text x="891" y="766" fill="#dbe6f5" font-size="14" font-weight="800" text-anchor="middle">UI</text>
<text x="924" y="753" fill="#eef3fb" font-size="15.5" font-weight="700" text-anchor="start">Prototype Console</text>
<text x="924" y="771" fill="#8593aa" font-size="10.8" font-weight="500" text-anchor="start">agent outputs</text>
<text x="924" y="784" fill="#8593aa" font-size="10.8" font-weight="500" text-anchor="start">terminal stream</text>
<rect x="1128" y="726" width="238" height="68" rx="11" fill="#0e1626" stroke="#14b8a6" stroke-width="1.4" stroke-opacity="0.55" filter="url(#soft-shadow)"/>
<rect x="1141" y="740" width="40" height="40" rx="9" fill="#14b8a6" stroke="#14b8a6" stroke-width="1.1" opacity="0.16" stroke-opacity="0.55"/>
<text x="1161" y="766" fill="#dbe6f5" font-size="14" font-weight="800" text-anchor="middle">OK</text>
<text x="1194" y="753" fill="#eef3fb" font-size="15.5" font-weight="700" text-anchor="start">Approval Gate</text>
<text x="1194" y="771" fill="#8593aa" font-size="10.8" font-weight="500" text-anchor="start">high risk</text>
<text x="1194" y="784" fill="#8593aa" font-size="10.8" font-weight="500" text-anchor="start">high value</text>
<rect x="258" y="836" width="240" height="68" rx="11" fill="#0e1626" stroke="#ec4899" stroke-width="1.4" stroke-opacity="0.55" filter="url(#soft-shadow)"/>
<rect x="271" y="850" width="40" height="40" rx="9" fill="#ec4899" stroke="#ec4899" stroke-width="1.1" opacity="0.16" stroke-opacity="0.55"/>
<text x="291" y="876" fill="#dbe6f5" font-size="14" font-weight="800" text-anchor="middle">AU</text>
<text x="324" y="863" fill="#eef3fb" font-size="15.5" font-weight="700" text-anchor="start">Audit Trail</text>
<text x="324" y="881" fill="#8593aa" font-size="10.8" font-weight="500" text-anchor="start">event + agent rows</text>
<text x="324" y="894" fill="#8593aa" font-size="10.8" font-weight="500" text-anchor="start">timings</text>
<rect x="528" y="836" width="222" height="68" rx="11" fill="#0e1626" stroke="#ec4899" stroke-width="1.4" stroke-opacity="0.55" filter="url(#soft-shadow)"/>
<rect x="541" y="850" width="40" height="40" rx="9" fill="#ec4899" stroke="#ec4899" stroke-width="1.1" opacity="0.16" stroke-opacity="0.55"/>
<text x="561" y="876" fill="#dbe6f5" font-size="14" font-weight="800" text-anchor="middle">JS</text>
<text x="594" y="863" fill="#eef3fb" font-size="15.5" font-weight="700" text-anchor="start">Schema Guards</text>
<text x="594" y="881" fill="#8593aa" font-size="10.8" font-weight="500" text-anchor="start">normalizers</text>
<text x="594" y="894" fill="#8593aa" font-size="10.8" font-weight="500" text-anchor="start">JSON retry</text>
<rect x="790" y="836" width="235" height="68" rx="11" fill="#0e1626" stroke="#ec4899" stroke-width="1.4" stroke-opacity="0.55" filter="url(#soft-shadow)"/>
<rect x="803" y="850" width="40" height="40" rx="9" fill="#ec4899" stroke="#ec4899" stroke-width="1.1" opacity="0.16" stroke-opacity="0.55"/>
<text x="823" y="876" fill="#dbe6f5" font-size="14" font-weight="800" text-anchor="middle">ENV</text>
<text x="856" y="863" fill="#eef3fb" font-size="15.5" font-weight="700" text-anchor="start">Secrets + Flags</text>
<text x="856" y="881" fill="#8593aa" font-size="10.8" font-weight="500" text-anchor="start">.env controls</text>
<text x="856" y="894" fill="#8593aa" font-size="10.8" font-weight="500" text-anchor="start">safe local mode</text>
<rect x="1070" y="836" width="235" height="68" rx="11" fill="#0e1626" stroke="#ec4899" stroke-width="1.4" stroke-opacity="0.55" filter="url(#soft-shadow)"/>
<rect x="1083" y="850" width="40" height="40" rx="9" fill="#ec4899" stroke="#ec4899" stroke-width="1.1" opacity="0.16" stroke-opacity="0.55"/>
<text x="1103" y="876" fill="#dbe6f5" font-size="14" font-weight="800" text-anchor="middle">HA</text>
<text x="1136" y="863" fill="#eef3fb" font-size="15.5" font-weight="700" text-anchor="start">Human Authority</text>
<text x="1136" y="881" fill="#8593aa" font-size="10.8" font-weight="500" text-anchor="start">AI assists</text>
<text x="1136" y="894" fill="#8593aa" font-size="10.8" font-weight="500" text-anchor="start">humans decide</text>
<path d="M 335.5 148 L 335 160 L 335.5 190" fill="none" stroke="#22c55e" stroke-width="2" opacity="1" marker-end="url(#arrow-flow)"/>
<text x="335" y="152" fill="#22c55e" font-size="10.5" font-weight="700" text-anchor="middle">claim email</text>
<path d="M 637.5 148 L 638 160 L 610.5 190" fill="none" stroke="#22c55e" stroke-width="2" opacity="1" marker-end="url(#arrow-flow)"/>
<text x="638" y="152" fill="#22c55e" font-size="10.5" font-weight="700" text-anchor="middle">poll/read</text>
<path d="M 453 224 L 493 224" fill="none" stroke="#22c55e" stroke-width="2" opacity="1" marker-end="url(#arrow-flow)"/>
<path d="M 728 224 L 768 224" fill="none" stroke="#22c55e" stroke-width="2" opacity="1" marker-end="url(#arrow-flow)"/>
<path d="M 1033 224 L 1090 224" fill="none" stroke="#22c55e" stroke-width="2" opacity="1" marker-end="url(#arrow-flow)"/>
<path d="M 335.5 258 L 330 312" fill="none" stroke="#22c55e" stroke-width="2" opacity="1" marker-end="url(#arrow-flow)"/>
<text x="330" y="304" fill="#22c55e" font-size="10.5" font-weight="700" text-anchor="middle">start session</text>
<path d="M 455 345 L 520 345" fill="none" stroke="#22c55e" stroke-width="2" opacity="1" marker-end="url(#arrow-flow)"/>
<text x="520" y="337" fill="#22c55e" font-size="10.5" font-weight="700" text-anchor="middle">set state</text>
<path d="M 735 345 L 760 345" fill="none" stroke="#22c55e" stroke-width="2" opacity="1" marker-end="url(#arrow-flow)"/>
<path d="M 965 345 L 1000 345" fill="none" stroke="#22c55e" stroke-width="2" opacity="1" marker-end="url(#arrow-flow)"/>
<text x="1000" y="337" fill="#22c55e" font-size="10.5" font-weight="700" text-anchor="middle">after intake</text>
<path d="M 330 378 L 330 400" fill="none" stroke="#22c55e" stroke-width="2" opacity="1" marker-end="url(#arrow-flow)"/>
<path d="M 455 437 L 478 437" fill="none" stroke="#22c55e" stroke-width="2" opacity="1" marker-end="url(#arrow-flow)"/>
<path d="M 733 437 L 756 437" fill="none" stroke="#22c55e" stroke-width="2" opacity="1" marker-end="url(#arrow-flow)"/>
<path d="M 1006 437 L 1028 437" fill="none" stroke="#22c55e" stroke-width="2" opacity="1" marker-end="url(#arrow-flow)"/>
<path d="M 1208 437 L 1230 437" fill="none" stroke="#22c55e" stroke-width="2" opacity="1" marker-end="url(#arrow-flow)"/>
<path d="M 330 474 L 712.5 506" fill="none" stroke="#3b82f6" stroke-width="2" stroke-dasharray="6 5" opacity="1" marker-end="url(#arrow-blue)"/>
<path d="M 605.5 474 L 962.5 506" fill="none" stroke="#3b82f6" stroke-width="2" stroke-dasharray="6 5" opacity="1" marker-end="url(#arrow-blue)"/>
<path d="M 881 474 L 962.5 506" fill="none" stroke="#3b82f6" stroke-width="2" stroke-dasharray="6 5" opacity="1" marker-end="url(#arrow-blue)"/>
<path d="M 1118 474 L 1212.5 506" fill="none" stroke="#3b82f6" stroke-width="2" stroke-dasharray="6 5" opacity="1" marker-end="url(#arrow-blue)"/>
<path d="M 330 378 L 392 616" fill="none" stroke="#f59e0b" stroke-width="2" stroke-dasharray="6 5" opacity="1" marker-end="url(#arrow-amber)"/>
<text x="392" y="608" fill="#f59e0b" font-size="10.5" font-weight="700" text-anchor="middle">audit</text>
<path d="M 605.5 474 L 605 585 L 969 585 L 969 616" fill="none" stroke="#f59e0b" stroke-width="2" stroke-dasharray="6 5" opacity="1" marker-end="url(#arrow-amber)"/>
<path d="M 691 684 L 691 726" fill="none" stroke="#f59e0b" stroke-width="2" stroke-dasharray="6 5" opacity="1" marker-end="url(#arrow-amber)"/>
<path d="M 807 760 L 858 760" fill="none" stroke="#14b8a6" stroke-width="2" stroke-dasharray="6 5" opacity="1" marker-end="url(#arrow-teal)"/>
<path d="M 526 760 L 575 760" fill="none" stroke="#14b8a6" stroke-width="2" stroke-dasharray="6 5" opacity="1" marker-end="url(#arrow-teal)"/>
<path d="M 1247 726 L 1247 700 L 1263 160 L 1263 148" fill="none" stroke="#ec4899" stroke-width="2" stroke-dasharray="6 5" opacity="1" marker-end="url(#arrow-pink)"/>
<text x="1263" y="152" fill="#ec4899" font-size="10.5" font-weight="700" text-anchor="middle">human verdict</text>
<path d="M 498 870 L 528 870" fill="none" stroke="#ec4899" stroke-width="2" stroke-dasharray="6 5" opacity="1" marker-end="url(#arrow-pink)"/>
<path d="M 750 870 L 790 870" fill="none" stroke="#ec4899" stroke-width="2" stroke-dasharray="6 5" opacity="1" marker-end="url(#arrow-pink)"/>
<path d="M 1025 870 L 1070 870" fill="none" stroke="#ec4899" stroke-width="2" stroke-dasharray="6 5" opacity="1" marker-end="url(#arrow-pink)"/>
<rect x="22" y="946" width="1492" height="58" rx="12" fill="#0c1322" stroke="#20293c" stroke-width="1"/>
<path d="M 110 976 h 34" stroke="#22c55e" stroke-width="2.4" marker-end="url(#arrow-flow)"/>
<text x="156" y="980" fill="#c7d2e2" font-size="12.5" font-weight="600" text-anchor="start">Primary data flow</text>
<path d="M 369.2 976 h 34" stroke="#3b82f6" stroke-width="2.4" stroke-dasharray="6 5" marker-end="url(#arrow-blue)"/>
<text x="415.2" y="980" fill="#c7d2e2" font-size="12.5" font-weight="600" text-anchor="start">LLM / inference flow</text>
<path d="M 628.4 976 h 34" stroke="#f59e0b" stroke-width="2.4" stroke-dasharray="6 5" marker-end="url(#arrow-amber)"/>
<text x="674.4" y="980" fill="#c7d2e2" font-size="12.5" font-weight="600" text-anchor="start">Evidence / audit flow</text>
<path d="M 887.6 976 h 34" stroke="#14b8a6" stroke-width="2.4" stroke-dasharray="6 5" marker-end="url(#arrow-teal)"/>
<text x="933.6" y="980" fill="#c7d2e2" font-size="12.5" font-weight="600" text-anchor="start">Notification / output flow</text>
<path d="M 1146.8 976 h 34" stroke="#ec4899" stroke-width="2.4" stroke-dasharray="6 5" marker-end="url(#arrow-pink)"/>
<text x="1192.8" y="980" fill="#c7d2e2" font-size="12.5" font-weight="600" text-anchor="start">Control / escalation flow</text>
</svg>
