<svg xmlns="http://www.w3.org/2000/svg" viewBox="0 0 1400 900" font-family="Inter, Segoe UI, Arial, sans-serif">
<defs>
<marker id="arrow-flow" markerWidth="9" markerHeight="9" refX="7" refY="3" orient="auto"><path d="M0,0 L7,3 L0,6 Z" fill="#22c55e"/></marker>
<marker id="arrow-blue" markerWidth="9" markerHeight="9" refX="7" refY="3" orient="auto"><path d="M0,0 L7,3 L0,6 Z" fill="#3b82f6"/></marker>
<marker id="arrow-green" markerWidth="9" markerHeight="9" refX="7" refY="3" orient="auto"><path d="M0,0 L7,3 L0,6 Z" fill="#84cc16"/></marker>
<marker id="arrow-purple" markerWidth="9" markerHeight="9" refX="7" refY="3" orient="auto"><path d="M0,0 L7,3 L0,6 Z" fill="#a855f7"/></marker>
<marker id="arrow-amber" markerWidth="9" markerHeight="9" refX="7" refY="3" orient="auto"><path d="M0,0 L7,3 L0,6 Z" fill="#f59e0b"/></marker>
<marker id="arrow-teal" markerWidth="9" markerHeight="9" refX="7" refY="3" orient="auto"><path d="M0,0 L7,3 L0,6 Z" fill="#14b8a6"/></marker>
<marker id="arrow-pink" markerWidth="9" markerHeight="9" refX="7" refY="3" orient="auto"><path d="M0,0 L7,3 L0,6 Z" fill="#ec4899"/></marker>
<marker id="arrow-red" markerWidth="9" markerHeight="9" refX="7" refY="3" orient="auto"><path d="M0,0 L7,3 L0,6 Z" fill="#f43f5e"/></marker>
<filter id="soft-shadow" x="-20%" y="-20%" width="140%" height="140%"><feDropShadow dx="0" dy="10" stdDeviation="12" flood-color="#020617" flood-opacity="0.28"/></filter>
</defs>
<rect x="0" y="0" width="1400" height="900" rx="0" fill="#0a0f1c"/>
<text x="700" y="42" fill="#eef3fb" font-size="30" font-weight="800" text-anchor="middle">ClaimIQ - Router Architecture</text>
<rect x="22" y="70" width="1356" height="112" rx="14" fill="#0e1a2e" stroke="#294a7a" stroke-width="1.6"/>
<rect x="34" y="104" width="44" height="44" rx="11" fill="none" stroke="#7db3f0" stroke-width="2"/>
<text x="56" y="134" fill="#7db3f0" font-size="24" font-weight="800" text-anchor="middle">1</text>
<text x="92" y="118" fill="#7db3f0" font-size="17" font-weight="800" text-anchor="start">Inputs</text>
<rect x="22" y="200" width="1356" height="148" rx="14" fill="#101d13" stroke="#3f6b2a" stroke-width="1.6"/>
<rect x="34" y="252" width="44" height="44" rx="11" fill="none" stroke="#a3e635" stroke-width="2"/>
<text x="56" y="282" fill="#a3e635" font-size="24" font-weight="800" text-anchor="middle">2</text>
<text x="92" y="266" fill="#a3e635" font-size="17" font-weight="800" text-anchor="start">Core</text>
<text x="92" y="287" fill="#a3e635" font-size="17" font-weight="800" text-anchor="start">Processing</text>
<rect x="22" y="368" width="1356" height="148" rx="14" fill="#17112b" stroke="#5b3a86" stroke-width="1.6"/>
<rect x="34" y="420" width="44" height="44" rx="11" fill="none" stroke="#c4a0f5" stroke-width="2"/>
<text x="56" y="450" fill="#c4a0f5" font-size="24" font-weight="800" text-anchor="middle">3</text>
<text x="92" y="434" fill="#c4a0f5" font-size="17" font-weight="800" text-anchor="start">Decision &amp;</text>
<text x="92" y="455" fill="#c4a0f5" font-size="17" font-weight="800" text-anchor="start">Fallbacks</text>
<rect x="22" y="536" width="1356" height="124" rx="14" fill="#0b1f1c" stroke="#1a6b62" stroke-width="1.6"/>
<rect x="34" y="576" width="44" height="44" rx="11" fill="none" stroke="#2dd4bf" stroke-width="2"/>
<text x="56" y="606" fill="#2dd4bf" font-size="24" font-weight="800" text-anchor="middle">4</text>
<text x="92" y="590" fill="#2dd4bf" font-size="17" font-weight="800" text-anchor="start">Outputs</text>
<rect x="22" y="680" width="1356" height="112" rx="14" fill="#1d0f18" stroke="#8a2b56" stroke-width="1.6"/>
<rect x="34" y="714" width="44" height="44" rx="11" fill="none" stroke="#f472b6" stroke-width="2"/>
<text x="56" y="744" fill="#f472b6" font-size="24" font-weight="800" text-anchor="middle">5</text>
<text x="92" y="728" fill="#f472b6" font-size="17" font-weight="800" text-anchor="start">Safety &amp;</text>
<text x="92" y="749" fill="#f472b6" font-size="17" font-weight="800" text-anchor="start">Traceability</text>
<rect x="220" y="93" width="250" height="68" rx="11" fill="#0e1626" stroke="#3b82f6" stroke-width="1.4" stroke-opacity="0.55" filter="url(#soft-shadow)"/>
<rect x="233" y="107" width="40" height="40" rx="9" fill="#3b82f6" stroke="#3b82f6" stroke-width="1.1" opacity="0.16" stroke-opacity="0.55"/>
<text x="253" y="133" fill="#dbe6f5" font-size="14" font-weight="800" text-anchor="middle">S</text>
<text x="286" y="120" fill="#eef3fb" font-size="15.5" font-weight="700" text-anchor="start">ClaimSession</text>
<text x="286" y="138" fill="#8593aa" font-size="10.8" font-weight="500" text-anchor="start">snapshot</text>
<text x="286" y="151" fill="#8593aa" font-size="10.8" font-weight="500" text-anchor="start">outputs + docs</text>
<rect x="535" y="93" width="250" height="68" rx="11" fill="#0e1626" stroke="#3b82f6" stroke-width="1.4" stroke-opacity="0.55" filter="url(#soft-shadow)"/>
<rect x="548" y="107" width="40" height="40" rx="9" fill="#3b82f6" stroke="#3b82f6" stroke-width="1.1" opacity="0.16" stroke-opacity="0.55"/>
<text x="568" y="133" fill="#dbe6f5" font-size="14" font-weight="800" text-anchor="middle">01</text>
<text x="601" y="120" fill="#eef3fb" font-size="15.5" font-weight="700" text-anchor="start">Intake Output</text>
<text x="601" y="138" fill="#8593aa" font-size="10.8" font-weight="500" text-anchor="start">status</text>
<text x="601" y="151" fill="#8593aa" font-size="10.8" font-weight="500" text-anchor="start">missing info</text>
<rect x="850" y="93" width="250" height="68" rx="11" fill="#0e1626" stroke="#3b82f6" stroke-width="1.4" stroke-opacity="0.55" filter="url(#soft-shadow)"/>
<rect x="863" y="107" width="40" height="40" rx="9" fill="#3b82f6" stroke="#3b82f6" stroke-width="1.1" opacity="0.16" stroke-opacity="0.55"/>
<text x="883" y="133" fill="#dbe6f5" font-size="14" font-weight="800" text-anchor="middle">ENV</text>
<text x="916" y="120" fill="#eef3fb" font-size="15.5" font-weight="700" text-anchor="start">Router Flags</text>
<text x="916" y="138" fill="#8593aa" font-size="10.8" font-weight="500" text-anchor="start">CLAIMIQ_ROUTER_ALWAYS_LLM</text>
<text x="916" y="151" fill="#8593aa" font-size="10.8" font-weight="500" text-anchor="start">model env vars</text>
<rect x="220" y="238" width="260" height="78" rx="11" fill="#0e1626" stroke="#84cc16" stroke-width="1.4" stroke-opacity="0.55" filter="url(#soft-shadow)"/>
<rect x="233" y="257" width="40" height="40" rx="9" fill="#84cc16" stroke="#84cc16" stroke-width="1.1" opacity="0.16" stroke-opacity="0.55"/>
<text x="253" y="283" fill="#dbe6f5" font-size="14" font-weight="800" text-anchor="middle">PA</text>
<text x="286" y="265" fill="#eef3fb" font-size="15.5" font-weight="700" text-anchor="start">Pause Check</text>
<text x="286" y="283" fill="#8593aa" font-size="10.8" font-weight="500" text-anchor="start">intake_status incomplete</text>
<text x="286" y="296" fill="#8593aa" font-size="10.8" font-weight="500" text-anchor="start">no downstream agents</text>
<text x="286" y="309" fill="#8593aa" font-size="10.8" font-weight="500" text-anchor="start">customer document request</text>
<rect x="535" y="238" width="260" height="78" rx="11" fill="#0e1626" stroke="#84cc16" stroke-width="1.4" stroke-opacity="0.55" filter="url(#soft-shadow)"/>
<rect x="548" y="257" width="40" height="40" rx="9" fill="#84cc16" stroke="#84cc16" stroke-width="1.1" opacity="0.16" stroke-opacity="0.55"/>
<text x="568" y="283" fill="#dbe6f5" font-size="14" font-weight="800" text-anchor="middle">FP</text>
<text x="601" y="265" fill="#eef3fb" font-size="15.5" font-weight="700" text-anchor="start">Deterministic Fast Path</text>
<text x="601" y="283" fill="#8593aa" font-size="10.8" font-weight="500" text-anchor="start">complete/needs_review</text>
<text x="601" y="296" fill="#8593aa" font-size="10.8" font-weight="500" text-anchor="start">select all four agents</text>
<rect x="850" y="238" width="260" height="78" rx="11" fill="#0e1626" stroke="#84cc16" stroke-width="1.4" stroke-opacity="0.55" filter="url(#soft-shadow)"/>
<rect x="863" y="257" width="40" height="40" rx="9" fill="#84cc16" stroke="#84cc16" stroke-width="1.1" opacity="0.16" stroke-opacity="0.55"/>
<text x="883" y="283" fill="#dbe6f5" font-size="14" font-weight="800" text-anchor="middle">AI</text>
<text x="916" y="265" fill="#eef3fb" font-size="15.5" font-weight="700" text-anchor="start">Ambiguous LLM Path</text>
<text x="916" y="283" fill="#8593aa" font-size="10.8" font-weight="500" text-anchor="start">choose_with_openai</text>
<text x="916" y="296" fill="#8593aa" font-size="10.8" font-weight="500" text-anchor="start">session snapshot</text>
<rect x="220" y="406" width="260" height="78" rx="11" fill="#0e1626" stroke="#a855f7" stroke-width="1.4" stroke-opacity="0.55" filter="url(#soft-shadow)"/>
<rect x="233" y="425" width="40" height="40" rx="9" fill="#a855f7" stroke="#a855f7" stroke-width="1.1" opacity="0.16" stroke-opacity="0.55"/>
<text x="253" y="451" fill="#dbe6f5" font-size="14" font-weight="800" text-anchor="middle">FB</text>
<text x="286" y="433" fill="#eef3fb" font-size="15.5" font-weight="700" text-anchor="start">Fallback Route</text>
<text x="286" y="451" fill="#8593aa" font-size="10.8" font-weight="500" text-anchor="start">policy present</text>
<text x="286" y="464" fill="#8593aa" font-size="10.8" font-weight="500" text-anchor="start">risk/amount/date</text>
<text x="286" y="477" fill="#8593aa" font-size="10.8" font-weight="500" text-anchor="start">human review if sparse</text>
<rect x="535" y="406" width="260" height="78" rx="11" fill="#0e1626" stroke="#a855f7" stroke-width="1.4" stroke-opacity="0.55" filter="url(#soft-shadow)"/>
<rect x="548" y="425" width="40" height="40" rx="9" fill="#a855f7" stroke="#a855f7" stroke-width="1.1" opacity="0.16" stroke-opacity="0.55"/>
<text x="568" y="451" fill="#dbe6f5" font-size="14" font-weight="800" text-anchor="middle">DEP</text>
<text x="601" y="433" fill="#eef3fb" font-size="15.5" font-weight="700" text-anchor="start">Dependency Enforcer</text>
<text x="601" y="451" fill="#8593aa" font-size="10.8" font-weight="500" text-anchor="start">triage needs coverage+fraud</text>
<text x="601" y="464" fill="#8593aa" font-size="10.8" font-weight="500" text-anchor="start">copilot needs triage</text>
<rect x="850" y="406" width="260" height="78" rx="11" fill="#0e1626" stroke="#a855f7" stroke-width="1.4" stroke-opacity="0.55" filter="url(#soft-shadow)"/>
<rect x="863" y="425" width="40" height="40" rx="9" fill="#a855f7" stroke="#a855f7" stroke-width="1.1" opacity="0.16" stroke-opacity="0.55"/>
<text x="883" y="451" fill="#dbe6f5" font-size="14" font-weight="800" text-anchor="middle">N</text>
<text x="916" y="433" fill="#eef3fb" font-size="15.5" font-weight="700" text-anchor="start">Normalize Route</text>
<text x="916" y="451" fill="#8593aa" font-size="10.8" font-weight="500" text-anchor="start">next_agent</text>
<text x="916" y="464" fill="#8593aa" font-size="10.8" font-weight="500" text-anchor="start">claim_status</text>
<text x="916" y="477" fill="#8593aa" font-size="10.8" font-weight="500" text-anchor="start">confidence</text>
<rect x="220" y="568" width="260" height="68" rx="11" fill="#0e1626" stroke="#14b8a6" stroke-width="1.4" stroke-opacity="0.55" filter="url(#soft-shadow)"/>
<rect x="233" y="582" width="40" height="40" rx="9" fill="#14b8a6" stroke="#14b8a6" stroke-width="1.1" opacity="0.16" stroke-opacity="0.55"/>
<text x="253" y="608" fill="#dbe6f5" font-size="14" font-weight="800" text-anchor="middle">SEL</text>
<text x="286" y="595" fill="#eef3fb" font-size="15.5" font-weight="700" text-anchor="start">selected_agents</text>
<text x="286" y="613" fill="#8593aa" font-size="10.8" font-weight="500" text-anchor="start">coverage, fraud</text>
<text x="286" y="626" fill="#8593aa" font-size="10.8" font-weight="500" text-anchor="start">triage, copilot</text>
<rect x="535" y="568" width="260" height="68" rx="11" fill="#0e1626" stroke="#14b8a6" stroke-width="1.4" stroke-opacity="0.55" filter="url(#soft-shadow)"/>
<rect x="548" y="582" width="40" height="40" rx="9" fill="#14b8a6" stroke="#14b8a6" stroke-width="1.1" opacity="0.16" stroke-opacity="0.55"/>
<text x="568" y="608" fill="#dbe6f5" font-size="14" font-weight="800" text-anchor="middle">REQ</text>
<text x="601" y="595" fill="#eef3fb" font-size="15.5" font-weight="700" text-anchor="start">Document Request</text>
<text x="601" y="613" fill="#8593aa" font-size="10.8" font-weight="500" text-anchor="start">pending_customer_documents</text>
<text x="601" y="626" fill="#8593aa" font-size="10.8" font-weight="500" text-anchor="start">missing_inputs</text>
<rect x="850" y="568" width="260" height="68" rx="11" fill="#0e1626" stroke="#14b8a6" stroke-width="1.4" stroke-opacity="0.55" filter="url(#soft-shadow)"/>
<rect x="863" y="582" width="40" height="40" rx="9" fill="#14b8a6" stroke="#14b8a6" stroke-width="1.1" opacity="0.16" stroke-opacity="0.55"/>
<text x="883" y="608" fill="#dbe6f5" font-size="14" font-weight="800" text-anchor="middle">LO</text>
<text x="916" y="595" fill="#eef3fb" font-size="15.5" font-weight="700" text-anchor="start">Orchestrator Loop</text>
<text x="916" y="613" fill="#8593aa" font-size="10.8" font-weight="500" text-anchor="start">runs in order</text>
<text x="916" y="626" fill="#8593aa" font-size="10.8" font-weight="500" text-anchor="start">records timing</text>
<rect x="220" y="706" width="260" height="60" rx="11" fill="#0e1626" stroke="#ec4899" stroke-width="1.4" stroke-opacity="0.55" filter="url(#soft-shadow)"/>
<rect x="233" y="718" width="40" height="40" rx="9" fill="#ec4899" stroke="#ec4899" stroke-width="1.1" opacity="0.16" stroke-opacity="0.55"/>
<text x="253" y="744" fill="#dbe6f5" font-size="14" font-weight="800" text-anchor="middle">BD</text>
<text x="286" y="733" fill="#eef3fb" font-size="15.5" font-weight="700" text-anchor="start">Boundary</text>
<text x="286" y="751" fill="#8593aa" font-size="10.8" font-weight="500" text-anchor="start">selects agents only</text>
<text x="286" y="764" fill="#8593aa" font-size="10.8" font-weight="500" text-anchor="start">does not adjudicate</text>
<rect x="535" y="706" width="260" height="60" rx="11" fill="#0e1626" stroke="#ec4899" stroke-width="1.4" stroke-opacity="0.55" filter="url(#soft-shadow)"/>
<rect x="548" y="718" width="40" height="40" rx="9" fill="#ec4899" stroke="#ec4899" stroke-width="1.1" opacity="0.16" stroke-opacity="0.55"/>
<text x="568" y="744" fill="#dbe6f5" font-size="14" font-weight="800" text-anchor="middle">DT</text>
<text x="601" y="733" fill="#eef3fb" font-size="15.5" font-weight="700" text-anchor="start">Cost Control</text>
<text x="601" y="751" fill="#8593aa" font-size="10.8" font-weight="500" text-anchor="start">skip LLM on fixed policy</text>
<text x="601" y="764" fill="#8593aa" font-size="10.8" font-weight="500" text-anchor="start">LLM only ambiguous</text>
<rect x="850" y="706" width="260" height="60" rx="11" fill="#0e1626" stroke="#ec4899" stroke-width="1.4" stroke-opacity="0.55" filter="url(#soft-shadow)"/>
<rect x="863" y="718" width="40" height="40" rx="9" fill="#ec4899" stroke="#ec4899" stroke-width="1.1" opacity="0.16" stroke-opacity="0.55"/>
<text x="883" y="744" fill="#dbe6f5" font-size="14" font-weight="800" text-anchor="middle">AU</text>
<text x="916" y="733" fill="#eef3fb" font-size="15.5" font-weight="700" text-anchor="start">Audit</text>
<text x="916" y="751" fill="#8593aa" font-size="10.8" font-weight="500" text-anchor="start">route_selected</text>
<text x="916" y="764" fill="#8593aa" font-size="10.8" font-weight="500" text-anchor="start">reason + confidence</text>
<path d="M 470 127 L 535 127" fill="none" stroke="#22c55e" stroke-width="2" opacity="1" marker-end="url(#arrow-flow)"/>
<path d="M 785 127 L 850 127" fill="none" stroke="#22c55e" stroke-width="2" opacity="1" marker-end="url(#arrow-flow)"/>
<path d="M 660 161 L 660 190 L 350 190 L 350 238" fill="none" stroke="#22c55e" stroke-width="2" opacity="1" marker-end="url(#arrow-flow)"/>
<path d="M 480 277 L 535 277" fill="none" stroke="#22c55e" stroke-width="2" opacity="1" marker-end="url(#arrow-flow)"/>
<text x="535" y="269" fill="#22c55e" font-size="10.5" font-weight="700" text-anchor="middle">not incomplete</text>
<path d="M 795 277 L 850 277" fill="none" stroke="#3b82f6" stroke-width="2" stroke-dasharray="6 5" opacity="1" marker-end="url(#arrow-blue)"/>
<text x="850" y="269" fill="#3b82f6" font-size="10.5" font-weight="700" text-anchor="middle">if forced/ambiguous</text>
<path d="M 980 316 L 980 365 L 350 365 L 350 406" fill="none" stroke="#3b82f6" stroke-width="2" stroke-dasharray="6 5" opacity="1" marker-end="url(#arrow-blue)"/>
<text x="350" y="357" fill="#3b82f6" font-size="10.5" font-weight="700" text-anchor="middle">on error</text>
<path d="M 480 445 L 535 445" fill="none" stroke="#22c55e" stroke-width="2" opacity="1" marker-end="url(#arrow-flow)"/>
<path d="M 665 316 L 665 406" fill="none" stroke="#22c55e" stroke-width="2" opacity="1" marker-end="url(#arrow-flow)"/>
<path d="M 980 316 L 980 365 L 665 365 L 665 406" fill="none" stroke="#22c55e" stroke-width="2" opacity="1" marker-end="url(#arrow-flow)"/>
<path d="M 795 445 L 850 445" fill="none" stroke="#22c55e" stroke-width="2" opacity="1" marker-end="url(#arrow-flow)"/>
<path d="M 980 484 L 980 525 L 350 525 L 350 568" fill="none" stroke="#14b8a6" stroke-width="2" opacity="1" marker-end="url(#arrow-teal)"/>
<path d="M 350 316 L 350 525 L 665 525 L 665 568" fill="none" stroke="#14b8a6" stroke-width="2" opacity="1" marker-end="url(#arrow-teal)"/>
<path d="M 480 602 L 500 602 L 850 602 L 850 602" fill="none" stroke="#14b8a6" stroke-width="2" opacity="1" marker-end="url(#arrow-teal)"/>
<path d="M 980 484 L 980 666 L 980 706" fill="none" stroke="#ec4899" stroke-width="2" stroke-dasharray="6 5" opacity="1" marker-end="url(#arrow-pink)"/>
<path d="M 665 316 L 665 666 L 665 706" fill="none" stroke="#ec4899" stroke-width="2" stroke-dasharray="6 5" opacity="1" marker-end="url(#arrow-pink)"/>
<rect x="22" y="822" width="1356" height="58" rx="12" fill="#0c1322" stroke="#20293c" stroke-width="1"/>
<path d="M 110 852 h 34" stroke="#22c55e" stroke-width="2.4" marker-end="url(#arrow-flow)"/>
<text x="156" y="856" fill="#c7d2e2" font-size="12.5" font-weight="600" text-anchor="start">Primary data</text>
<path d="M 342 852 h 34" stroke="#3b82f6" stroke-width="2.4" stroke-dasharray="6 5" marker-end="url(#arrow-blue)"/>
<text x="388" y="856" fill="#c7d2e2" font-size="12.5" font-weight="600" text-anchor="start">Model call</text>
<path d="M 574 852 h 34" stroke="#f59e0b" stroke-width="2.4" stroke-dasharray="6 5" marker-end="url(#arrow-amber)"/>
<text x="620" y="856" fill="#c7d2e2" font-size="12.5" font-weight="600" text-anchor="start">Evidence / storage</text>
<path d="M 806 852 h 34" stroke="#14b8a6" stroke-width="2.4" stroke-dasharray="6 5" marker-end="url(#arrow-teal)"/>
<text x="852" y="856" fill="#c7d2e2" font-size="12.5" font-weight="600" text-anchor="start">Output</text>
<path d="M 1038 852 h 34" stroke="#ec4899" stroke-width="2.4" stroke-dasharray="6 5" marker-end="url(#arrow-pink)"/>
<text x="1084" y="856" fill="#c7d2e2" font-size="12.5" font-weight="600" text-anchor="start">Guardrail</text>
</svg>
